<svg width="196" height="6" viewBox="0 0 196 6" fill="none" xmlns="http://www.w3.org/2000/svg">
	<path d="M5.64481 0.93981C5.72283 0.931142 5.76617 0.896467 5.76617 0.831453V0.714427H5.25906H5.03801C5.00767 0.714427 4.99033 0.714427 4.97299 0.718761C4.95566 0.72743 4.94265 0.744767 4.92532 0.770773L3.23494 3.74843C3.2176 3.77877 3.2046 3.80911 3.19593 3.83946C3.18293 3.8698 3.16993 3.90447 3.15692 3.93481C3.13525 3.8698 3.10925 3.80911 3.07891 3.75277L1.34519 0.770773C1.32352 0.744767 1.31485 0.72743 1.29318 0.718761C1.27584 0.714427 1.2585 0.714427 1.22816 0.714427H1.01578H0.5V0.831453C0.5 0.896467 0.543343 0.931142 0.62136 0.93981H0.68204C0.712381 0.93981 0.755723 0.944145 0.816404 0.944145C0.877084 0.944145 0.942098 0.952813 1.01578 0.952813V4.76266C0.942098 4.76266 0.877084 4.76699 0.816404 4.76699C0.755723 4.76699 0.712381 4.77566 0.68204 4.77566H0.62136C0.543343 4.78 0.5 4.81467 0.5 4.88402V5.00538H1.01578H1.28451H1.80896V4.88402C1.80896 4.81467 1.76995 4.78 1.6876 4.77566H1.62692C1.59658 4.77566 1.5489 4.76699 1.48822 4.76699C1.42754 4.76699 1.35386 4.76266 1.28451 4.76266V1.34723C1.28451 1.29089 1.28451 1.23454 1.27584 1.17386L3.01389 4.17753C3.04423 4.23388 3.08324 4.25988 3.13525 4.25988H3.18293C3.23494 4.25988 3.27395 4.23388 3.30429 4.17753L4.99033 1.17386C4.986 1.23454 4.986 1.29089 4.986 1.34723V4.76266C4.91231 4.76266 4.83863 4.76699 4.77795 4.76699C4.71727 4.76699 4.66959 4.77566 4.63925 4.77566H4.57857C4.50056 4.78 4.45721 4.81467 4.45721 4.88402V5.00538H4.986H5.25906H5.76617V4.88402C5.76617 4.81467 5.72283 4.78 5.64481 4.77566H5.5928C5.56246 4.77566 5.51045 4.76699 5.44977 4.76699C5.38909 4.76699 5.32841 4.76266 5.25906 4.76266V0.952813C5.32841 0.952813 5.38909 0.944145 5.44977 0.944145C5.51045 0.944145 5.56246 0.93981 5.5928 0.93981H5.64481ZM13.4119 4.74532L13.2125 4.72365L11.5741 0.710093H11.2664L9.61936 4.72365L9.42432 4.74532C9.3463 4.74966 9.31162 4.793 9.31162 4.86668V5.00538H9.50667H9.63236H9.74072H9.78406H10.3562V4.86668C10.3562 4.78433 10.3042 4.74966 10.2132 4.74532C10.2088 4.74532 10.1958 4.73665 10.1785 4.73665C10.1611 4.73665 10.1351 4.73232 10.0918 4.73232C10.0528 4.73232 9.99644 4.73232 9.93576 4.72365L10.3605 3.67475L10.3909 3.59673H12.441L12.4713 3.67475L12.8961 4.72365C12.8354 4.73232 12.7877 4.73232 12.7444 4.73232C12.701 4.73232 12.6707 4.73665 12.6534 4.73665C12.636 4.73665 12.623 4.74532 12.6187 4.74532C12.5277 4.74966 12.48 4.78433 12.48 4.86668V5.00538H13.0478H13.0911H13.2082H13.3295H13.5289V4.86668C13.5289 4.793 13.4899 4.74966 13.4119 4.74532ZM11.3314 1.27789C11.3444 1.24321 11.3617 1.19987 11.3748 1.15653C11.3878 1.11318 11.4051 1.07417 11.4181 1.02216C11.4268 1.07417 11.4484 1.11318 11.4571 1.15653C11.4701 1.19987 11.4874 1.23454 11.5004 1.27355L12.35 3.36702H10.4862L11.3314 1.27789ZM20.7802 4.77566H20.7412H20.6631C20.6285 4.77566 20.5851 4.76699 20.5418 4.76699L18.7951 2.94226C18.7604 2.89891 18.7301 2.86857 18.691 2.84257C18.6564 2.8209 18.6174 2.80356 18.5784 2.79056C18.613 2.77755 18.6434 2.76022 18.6737 2.73421C18.704 2.71254 18.7387 2.6822 18.7777 2.63885L20.4204 0.944145H20.5375C20.5721 0.944145 20.5981 0.93981 20.6155 0.93981H20.6501C20.7325 0.931142 20.7715 0.896467 20.7715 0.831453V0.710093H20.3467H20.2947H19.5102V0.831453C19.5102 0.896467 19.5536 0.931142 19.6316 0.93981H19.7053C19.7486 0.93981 19.8006 0.944145 19.8743 0.944145H20.0693L18.4787 2.57817C18.457 2.59985 18.431 2.62585 18.4136 2.63885C18.3963 2.65186 18.3703 2.65619 18.3443 2.66919C18.3226 2.67353 18.3053 2.68653 18.275 2.68653C18.2446 2.69087 18.2056 2.69087 18.1709 2.69087H17.9152V0.944145C17.9889 0.944145 18.0539 0.93981 18.1146 0.93981C18.1753 0.93981 18.2186 0.931142 18.2489 0.931142H18.3096C18.3876 0.926808 18.4267 0.892133 18.4267 0.822784V0.710093H17.9152H17.6075H17.096V0.822784C17.096 0.892133 17.1394 0.926808 17.2174 0.931142H17.2737C17.3041 0.931142 17.3517 0.93981 17.4124 0.93981C17.4731 0.93981 17.5338 0.944145 17.6075 0.944145V4.76266C17.5338 4.76266 17.4731 4.76699 17.4124 4.76699C17.3517 4.76699 17.3041 4.77566 17.2737 4.77566H17.2174C17.1394 4.78 17.096 4.81467 17.096 4.88402V5.00538H17.6075H17.9152H18.4267V4.88402C18.4267 4.81467 18.3876 4.78 18.3096 4.77566H18.2489C18.2186 4.77566 18.1753 4.76699 18.1146 4.76699C18.0539 4.76699 17.9889 4.76266 17.9152 4.76266V2.93359H18.1926C18.2446 2.93359 18.2836 2.93359 18.314 2.94226C18.3443 2.94659 18.3703 2.95526 18.3963 2.96393C18.418 2.97693 18.444 2.98993 18.4613 3.00727C18.4787 3.02461 18.496 3.03761 18.522 3.06362L20.1907 4.76699C20.13 4.76699 20.0563 4.77566 19.9827 4.77566H19.8093H19.7313C19.6489 4.78 19.6099 4.81467 19.6099 4.88402V5.00538H20.4204H20.4464H20.5201H20.7715H20.9015V4.88402C20.9015 4.81467 20.8582 4.78 20.7802 4.77566ZM25.0018 0.714427H24.486V0.831453C24.486 0.896467 24.5293 0.931142 24.6074 0.93981H24.668C24.6984 0.93981 24.7417 0.944145 24.8024 0.944145C24.8631 0.944145 24.9281 0.952813 25.0018 0.952813V4.76266C24.9281 4.76266 24.8631 4.76699 24.8024 4.76699C24.7417 4.76699 24.6984 4.77566 24.668 4.77566H24.6074C24.5293 4.78 24.4947 4.81467 24.4947 4.88402V5.00538H25.0018H27.5763V4.74532V4.11252H27.4247C27.338 4.11252 27.3033 4.16886 27.2946 4.26422C27.2946 4.27722 27.2903 4.29889 27.2903 4.34223C27.2903 4.38558 27.2903 4.44626 27.286 4.53728C27.2773 4.6283 27.273 4.68898 27.273 4.74532H25.3138V2.95526H27.0216V2.70387H25.3138V0.970151H27.273C27.286 1.23454 27.2946 1.39925 27.2946 1.45559C27.3033 1.55095 27.338 1.59862 27.4247 1.59862H27.5763V0.970151V0.714427H25.0018ZM38.4901 1.04383C38.2387 0.822784 37.853 0.714427 37.3502 0.714427H36.3056H35.7898V0.831453C35.7898 0.896467 35.8332 0.931142 35.9112 0.93981H35.9719C36.0022 0.93981 36.0456 0.944145 36.1062 0.944145C36.1669 0.944145 36.2363 0.952813 36.3056 0.952813V4.76266C36.2363 4.76266 36.1669 4.76699 36.1062 4.76699C36.0456 4.76699 36.0022 4.77566 35.9719 4.77566H35.9112C35.8332 4.78 35.7898 4.81467 35.7898 4.88402V5.00538H36.3056H36.6177H37.1248V4.88402C37.1248 4.81467 37.0858 4.78 37.0034 4.77566H36.9514C36.9211 4.77566 36.8734 4.76699 36.8127 4.76699C36.7521 4.76699 36.6914 4.76266 36.6177 4.76266V3.276H37.3502C37.5886 3.276 37.801 3.23699 37.9873 3.17631C38.178 3.11129 38.3341 3.02461 38.4684 2.91192C38.6028 2.79489 38.7025 2.66053 38.7718 2.50449C38.8455 2.34846 38.8759 2.17509 38.8759 1.98871C38.8759 1.58129 38.7458 1.26055 38.4901 1.04383ZM38.4814 2.40047C38.4251 2.5305 38.3471 2.63885 38.2431 2.72987C38.139 2.8209 38.0133 2.89458 37.8616 2.94659C37.7099 3.00294 37.5409 3.02461 37.3502 3.02461H36.6177V0.957148H37.3502C37.7533 0.957148 38.0567 1.04817 38.2604 1.22587C38.4598 1.39925 38.5638 1.65497 38.5638 1.98438C38.5638 2.13608 38.5335 2.27477 38.4814 2.40047ZM45.8888 4.77566H45.8454H45.7674C45.7327 4.77566 45.6937 4.76699 45.659 4.76699L44.3717 3.14597C44.3371 3.09829 44.2851 3.05495 44.2374 3.02461C44.4281 3.00727 44.5971 2.96393 44.7488 2.89891C44.9005 2.8339 45.0219 2.74721 45.1303 2.64319C45.2343 2.53917 45.3166 2.41781 45.373 2.28778C45.4293 2.15341 45.4597 2.00171 45.4597 1.83701C45.4597 1.46859 45.3383 1.19553 45.0956 1.00049C44.8529 0.809781 44.4801 0.714427 43.9817 0.714427H42.9414H42.43V0.831453C42.43 0.896467 42.4647 0.931142 42.547 0.93981H42.6077C42.638 0.93981 42.677 0.944145 42.7377 0.944145C42.7984 0.944145 42.8678 0.952813 42.9414 0.952813V4.76266C42.8678 4.76266 42.7984 4.76699 42.7377 4.76699C42.677 4.76699 42.638 4.77566 42.6077 4.77566H42.547C42.4647 4.78 42.4257 4.81467 42.4257 4.88402V5.00538H42.9414H43.2492H43.7606V4.88402C43.7606 4.81467 43.7173 4.78 43.6393 4.77566H43.5786C43.5482 4.77566 43.5049 4.76699 43.4442 4.76699C43.3835 4.76699 43.3229 4.76266 43.2492 4.76266V3.06362H43.7606C43.843 3.06362 43.9036 3.06795 43.9427 3.08529C43.9773 3.10696 44.012 3.14163 44.051 3.18498L45.4293 4.92736C45.451 4.9577 45.4683 4.97504 45.4943 4.98804C45.5203 4.99671 45.5507 5.00538 45.581 5.00538H45.6114H45.8454H46.0058V4.88402C46.0058 4.81467 45.9668 4.78 45.8888 4.77566ZM43.9427 2.8339H43.2492V0.957148H43.9817C44.3674 0.957148 44.6578 1.03516 44.8572 1.18253C45.0566 1.32556 45.1563 1.55961 45.1563 1.86302C45.1563 2.01472 45.1303 2.14041 45.0739 2.26177C45.0219 2.38313 44.9352 2.47849 44.8312 2.56517C44.7315 2.65186 44.6015 2.72121 44.4498 2.76455C44.2981 2.80789 44.129 2.8339 43.9427 2.8339ZM53.4434 2.85557C53.4434 2.5305 53.3871 2.2271 53.2917 1.95837C53.1964 1.68964 53.0533 1.45993 52.8713 1.26488C52.6893 1.07417 52.4769 0.922473 52.2298 0.81845C51.9828 0.714427 51.6967 0.658081 51.3933 0.658081C51.0899 0.658081 50.8168 0.714427 50.5655 0.81845C50.3184 0.922473 50.1017 1.07417 49.9197 1.26488C49.7376 1.45993 49.5946 1.68964 49.4992 1.95837C49.4039 2.2271 49.3475 2.5305 49.3475 2.85557C49.3475 3.18931 49.4039 3.49271 49.4992 3.76144C49.5946 4.02583 49.7376 4.25988 49.9197 4.45059C50.1017 4.64563 50.3184 4.793 50.5655 4.89702C50.8168 4.99671 51.0899 5.05306 51.3933 5.05306C51.6967 5.05306 51.9828 4.99671 52.2298 4.89702C52.4769 4.793 52.6893 4.64563 52.8713 4.45059C53.0533 4.25988 53.1964 4.02583 53.2917 3.76144C53.3871 3.49271 53.4434 3.18931 53.4434 2.85557ZM53.114 2.85557C53.114 3.15897 53.0794 3.4277 52.9927 3.66175C52.9103 3.90014 52.7933 4.10818 52.6416 4.26855C52.4899 4.43325 52.3078 4.56762 52.0955 4.6543C51.8831 4.73665 51.6534 4.78 51.3933 4.78C51.1376 4.78 50.9079 4.73665 50.6955 4.6543C50.4831 4.56762 50.3011 4.43325 50.1494 4.26855C49.9977 4.10818 49.8763 3.90014 49.7896 3.66175C49.7073 3.4277 49.6683 3.15897 49.6683 2.85557C49.6683 2.56084 49.7073 2.28778 49.7896 2.04939C49.8763 1.811 49.9977 1.60729 50.1494 1.44259C50.3011 1.27789 50.4831 1.14352 50.6955 1.06117C50.9079 0.974485 51.1376 0.926807 51.3933 0.926807C51.6534 0.926807 51.8831 0.974485 52.0955 1.06117C52.3078 1.14352 52.4899 1.27789 52.6416 1.44259C52.7933 1.60729 52.9103 1.811 52.9927 2.04939C53.0794 2.28778 53.114 2.56084 53.114 2.85557ZM60.1183 0.714427H59.9665H57.5437H57.0279V0.831453C57.0279 0.896467 57.0712 0.931142 57.1493 0.93981H57.2099C57.2403 0.93981 57.2836 0.944145 57.3443 0.944145C57.405 0.944145 57.4743 0.952813 57.5437 0.952813V4.76266C57.4743 4.76266 57.405 4.76699 57.3443 4.76699C57.2836 4.76699 57.2403 4.77566 57.2099 4.77566H57.1493C57.0712 4.78 57.0279 4.81467 57.0279 4.88402V5.00538H57.5437H57.8557H58.3629V4.88402C58.3629 4.81467 58.3282 4.78 58.2502 4.77566H58.1895C58.1591 4.77566 58.1158 4.76699 58.0551 4.76699C57.9944 4.76699 57.9294 4.76266 57.8557 4.76266V3.03328H59.4551V2.77322H57.8557V0.970151H59.8495C59.8625 1.26055 59.8755 1.42525 59.8755 1.45559C59.8799 1.55095 59.9232 1.59862 60.0099 1.59862H60.1529V0.714427H60.1183ZM64.1882 0.714427H63.6724V0.831453C63.6724 0.896467 63.7157 0.931142 63.7937 0.93981H63.8544C63.8848 0.93981 63.9281 0.944145 63.9888 0.944145C64.0495 0.944145 64.1188 0.952813 64.1882 0.952813V4.76266C64.1188 4.76266 64.0495 4.76699 63.9888 4.76699C63.9281 4.76699 63.8848 4.77566 63.8544 4.77566H63.7937C63.7157 4.78 63.681 4.81467 63.681 4.88402V5.00538H64.1882H66.7627V4.74532V4.11252H66.611C66.5243 4.11252 66.4897 4.16886 66.4853 4.26422C66.4853 4.27722 66.4767 4.29889 66.4767 4.34223C66.4767 4.38558 66.4767 4.44626 66.4723 4.53728C66.4637 4.6283 66.4593 4.68898 66.4593 4.74532H64.5002V2.95526H66.2123V2.70387H64.5002V0.970151H66.4593C66.4723 1.23454 66.4853 1.39925 66.4853 1.45559C66.4897 1.55095 66.5243 1.59862 66.611 1.59862H66.7627V0.970151V0.714427H64.1882ZM72.9651 3.31067C72.9044 3.19798 72.8177 3.08529 72.7137 3.00727C72.614 2.92925 72.5013 2.86424 72.3756 2.80789C72.2499 2.75155 72.1069 2.70387 71.9769 2.66053C71.8425 2.62152 71.7082 2.56951 71.5825 2.5305C71.4524 2.47849 71.3397 2.42647 71.2357 2.35713C71.1317 2.29211 71.0537 2.21409 70.993 2.1144C70.9323 2.01905 70.8933 1.89769 70.8933 1.75032C70.8933 1.64197 70.9193 1.53794 70.9627 1.43825C71.006 1.33423 71.0667 1.24755 71.1447 1.16953C71.2227 1.09151 71.3181 1.03083 71.4394 0.987488C71.5608 0.944145 71.6952 0.922473 71.8555 0.922473C72.1459 0.922473 72.4103 0.97015 72.653 1.07417C72.6747 1.41658 72.6834 1.61163 72.6834 1.64197C72.692 1.74166 72.7267 1.79367 72.8134 1.79367H72.9564V0.913805C72.575 0.749101 72.2109 0.66675 71.8555 0.66675C71.6518 0.66675 71.4784 0.69709 71.3181 0.75777C71.162 0.81845 71.0363 0.896467 70.9323 1.00049C70.8283 1.10451 70.7416 1.21721 70.6896 1.35157C70.6333 1.48593 70.6116 1.62463 70.6116 1.772C70.6116 1.95404 70.6419 2.11007 70.7026 2.23143C70.7633 2.35279 70.8456 2.44815 70.9497 2.53483C71.0537 2.62152 71.162 2.6822 71.2877 2.73421C71.4178 2.79056 71.5565 2.83823 71.6908 2.88158C71.8252 2.92492 71.9509 2.96393 72.0852 3.00727C72.2109 3.05061 72.328 3.11129 72.432 3.17631C72.5317 3.24566 72.614 3.32367 72.6747 3.41903C72.7354 3.51872 72.7657 3.64441 72.7657 3.79611C72.7657 3.93481 72.7397 4.06917 72.692 4.19053C72.6444 4.31189 72.575 4.41592 72.484 4.50694C72.393 4.59796 72.2803 4.67164 72.1459 4.71932C72.0116 4.77566 71.8599 4.793 71.6908 4.793C71.3484 4.793 71.0667 4.73665 70.8326 4.6283C70.8283 4.54161 70.8283 4.45059 70.824 4.35524C70.8153 4.25988 70.8153 4.17753 70.811 4.11252C70.8023 4.0475 70.8023 4.00849 70.8023 4.00416C70.798 3.90447 70.7546 3.85679 70.6723 3.85679H70.5249V4.65864V4.73665V4.81467C70.8933 4.97504 71.2791 5.05306 71.6778 5.05306C71.8945 5.05306 72.0896 5.01838 72.2586 4.94903C72.432 4.88402 72.575 4.78433 72.692 4.67164C72.8047 4.55461 72.9044 4.41592 72.9651 4.25988C73.0258 4.09951 73.0561 3.93048 73.0561 3.74843C73.0561 3.57073 73.0258 3.4277 72.9651 3.31067ZM79.1155 3.31067C79.0548 3.19798 78.9724 3.08529 78.8684 3.00727C78.7644 2.92925 78.656 2.86424 78.5303 2.80789C78.4003 2.75155 78.2616 2.70387 78.1273 2.66053C77.9929 2.62152 77.8629 2.56951 77.7328 2.5305C77.6071 2.47849 77.4901 2.42647 77.3861 2.35713C77.2864 2.29211 77.204 2.21409 77.1434 2.1144C77.0827 2.01905 77.048 1.89769 77.048 1.75032C77.048 1.64197 77.074 1.53794 77.113 1.43825C77.1564 1.33423 77.2171 1.24755 77.2951 1.16953C77.3774 1.09151 77.4728 1.03083 77.5941 0.987488C77.7155 0.944145 77.8499 0.922473 78.0059 0.922473C78.2963 0.922473 78.565 0.97015 78.8077 1.07417C78.8251 1.41658 78.8381 1.61163 78.8381 1.64197C78.8424 1.74166 78.8814 1.79367 78.9638 1.79367H79.1111V0.913805C78.7297 0.749101 78.3656 0.66675 78.0059 0.66675C77.8065 0.66675 77.6288 0.69709 77.4728 0.75777C77.3167 0.81845 77.1867 0.896467 77.0827 1.00049C76.983 1.10451 76.8963 1.21721 76.84 1.35157C76.788 1.48593 76.7619 1.62463 76.7619 1.772C76.7619 1.95404 76.7923 2.11007 76.853 2.23143C76.9137 2.35279 77.0003 2.44815 77.1044 2.53483C77.204 2.62152 77.3167 2.6822 77.4424 2.73421C77.5681 2.79056 77.7112 2.83823 77.8412 2.88158C77.9756 2.92492 78.1056 2.96393 78.2356 3.00727C78.3656 3.05061 78.4783 3.11129 78.5824 3.17631C78.6864 3.24566 78.7644 3.32367 78.8251 3.41903C78.8858 3.51872 78.9161 3.64441 78.9161 3.79611C78.9161 3.93481 78.8944 4.06917 78.8424 4.19053C78.7947 4.31189 78.7297 4.41592 78.6387 4.50694C78.5477 4.59796 78.4307 4.67164 78.2963 4.71932C78.1663 4.77566 78.0146 4.793 77.8412 4.793C77.5031 4.793 77.217 4.73665 76.9873 4.6283C76.983 4.54161 76.983 4.45059 76.9743 4.35524C76.97 4.25988 76.97 4.17753 76.9613 4.11252C76.957 4.0475 76.957 4.00849 76.957 4.00416C76.9527 3.90447 76.9093 3.85679 76.8226 3.85679H76.6796V4.65864V4.73665V4.81467C77.048 4.97504 77.4294 5.05306 77.8325 5.05306C78.0492 5.05306 78.2443 5.01838 78.4133 4.94903C78.5824 4.88402 78.7297 4.78433 78.8424 4.67164C78.9594 4.55461 79.0548 4.41592 79.1155 4.25988C79.1762 4.09951 79.2065 3.93048 79.2065 3.74843C79.2065 3.57073 79.1762 3.4277 79.1155 3.31067ZM84.0089 0.93981C84.0869 0.931142 84.1216 0.896467 84.1216 0.831453V0.710093H83.6145H83.3024H82.7866V0.831453C82.7866 0.896467 82.83 0.931142 82.908 0.93981H82.9687C82.999 0.93981 83.0423 0.944145 83.103 0.944145C83.1637 0.944145 83.2331 0.952813 83.3024 0.952813V4.76266C83.2331 4.76266 83.1637 4.76699 83.103 4.76699C83.0423 4.76699 82.999 4.77566 82.9687 4.77566H82.908C82.83 4.78 82.7866 4.81467 82.7866 4.88402V5.00538H83.3024H83.6145H84.1216V4.88402C84.1216 4.81467 84.0869 4.78 84.0089 4.77566H83.9482C83.9179 4.77566 83.8745 4.76699 83.8139 4.76699C83.7532 4.76699 83.6882 4.76266 83.6145 4.76266V0.952813C83.6882 0.952813 83.7532 0.944145 83.8139 0.944145C83.8745 0.944145 83.9179 0.93981 83.9482 0.93981H84.0089ZM91.7586 2.85557C91.7586 2.5305 91.7023 2.2271 91.6069 1.95837C91.5072 1.68964 91.3685 1.45993 91.1865 1.26488C91.0044 1.07417 90.7921 0.922473 90.545 0.81845C90.2936 0.714427 90.0076 0.658081 89.7042 0.658081C89.4008 0.658081 89.1277 0.714427 88.8806 0.81845C88.6336 0.922473 88.4125 1.07417 88.2305 1.26488C88.0485 1.45993 87.9098 1.68964 87.8144 1.95837C87.7147 2.2271 87.6627 2.5305 87.6627 2.85557C87.6627 3.18931 87.7147 3.49271 87.8144 3.76144C87.9098 4.02583 88.0485 4.25988 88.2305 4.45059C88.4125 4.64563 88.6336 4.793 88.8806 4.89702C89.1277 4.99671 89.4008 5.05306 89.7042 5.05306C90.0076 5.05306 90.2936 4.99671 90.545 4.89702C90.7921 4.793 91.0044 4.64563 91.1865 4.45059C91.3685 4.25988 91.5072 4.02583 91.6069 3.76144C91.7023 3.49271 91.7586 3.18931 91.7586 2.85557ZM91.4292 2.85557C91.4292 3.15897 91.3945 3.4277 91.3079 3.66175C91.2212 3.90014 91.1085 4.10818 90.9568 4.26855C90.8051 4.43325 90.623 4.56762 90.4107 4.6543C90.1983 4.73665 89.9686 4.78 89.7042 4.78C89.4528 4.78 89.2187 4.73665 89.0063 4.6543C88.794 4.56762 88.6119 4.43325 88.4602 4.26855C88.3085 4.10818 88.1872 3.90014 88.1048 3.66175C88.0181 3.4277 87.9834 3.15897 87.9834 2.85557C87.9834 2.56084 88.0181 2.28778 88.1048 2.04939C88.1872 1.811 88.3085 1.60729 88.4602 1.44259C88.6119 1.27789 88.794 1.14352 89.0063 1.06117C89.2187 0.974485 89.4528 0.926807 89.7042 0.926807C89.9686 0.926807 90.1983 0.974485 90.4107 1.06117C90.623 1.14352 90.8051 1.27789 90.9568 1.44259C91.1085 1.60729 91.2212 1.811 91.3079 2.04939C91.3945 2.28778 91.4292 2.56084 91.4292 2.85557ZM99.0489 0.714427H98.7758H98.2514V0.831453C98.2514 0.896467 98.2904 0.931142 98.3727 0.93981H98.4334C98.4638 0.93981 98.5115 0.944145 98.5721 0.944145C98.6328 0.944145 98.7065 0.952813 98.7758 0.952813V4.31189C98.7758 4.36824 98.7758 4.42892 98.7845 4.4896L96.0062 0.770773C95.9846 0.744767 95.9759 0.72743 95.9542 0.718761C95.9369 0.714427 95.9195 0.710093 95.8892 0.710093H95.7375H95.2217V0.831453C95.2217 0.896467 95.2651 0.931142 95.3431 0.93981H95.4038C95.4341 0.93981 95.4774 0.944145 95.5381 0.944145C95.5988 0.944145 95.6638 0.952813 95.7375 0.952813V4.76266C95.6638 4.76266 95.5988 4.76699 95.5381 4.76699C95.4774 4.76699 95.4341 4.77566 95.4038 4.77566H95.3431C95.2651 4.78 95.2217 4.81467 95.2217 4.88402V5.00538H95.7375H96.0062H96.5307V4.88402C96.5307 4.81467 96.4917 4.78 96.4093 4.77566H96.3486C96.3183 4.77566 96.2663 4.76699 96.2056 4.76699C96.1449 4.76699 96.0756 4.76266 96.0062 4.76266V1.39491C96.0062 1.33857 96.0062 1.27789 95.9976 1.21721L98.7888 4.9447C98.8192 4.98804 98.8495 5.00538 98.8972 5.00538H99.0489V0.952813C99.1226 0.952813 99.1833 0.944145 99.2439 0.944145C99.3046 0.944145 99.3523 0.93981 99.3826 0.93981H99.439C99.517 0.931142 99.5603 0.896467 99.5603 0.831453V0.714427H99.0489ZM107.072 4.74532L106.872 4.72365L105.234 0.710093H104.926L103.279 4.72365L103.084 4.74532C103.006 4.74966 102.971 4.793 102.971 4.86668V5.00538H103.166H103.292H103.401H103.444H104.016V4.86668C104.016 4.78433 103.964 4.74966 103.873 4.74532C103.869 4.74532 103.856 4.73665 103.838 4.73665C103.821 4.73665 103.795 4.73232 103.752 4.73232C103.713 4.73232 103.656 4.73232 103.596 4.72365L104.02 3.67475L104.051 3.59673H106.101L106.131 3.67475L106.556 4.72365C106.495 4.73232 106.448 4.73232 106.404 4.73232C106.361 4.73232 106.331 4.73665 106.313 4.73665C106.296 4.73665 106.283 4.74532 106.279 4.74532C106.187 4.74966 106.14 4.78433 106.14 4.86668V5.00538H106.708H106.751H106.868H106.989H107.189V4.86668C107.189 4.793 107.15 4.74966 107.072 4.74532ZM104.991 1.27789C105.004 1.24321 105.022 1.19987 105.035 1.15653C105.048 1.11318 105.065 1.07417 105.078 1.02216C105.087 1.07417 105.108 1.11318 105.117 1.15653C105.13 1.19987 105.147 1.23454 105.16 1.27355L106.01 3.36702H104.146L104.991 1.27789ZM113.517 4.20354C113.43 4.20354 113.395 4.25121 113.391 4.3509C113.391 4.35524 113.391 4.38124 113.382 4.40291C113.378 4.42892 113.378 4.47226 113.369 4.52427C113.365 4.58062 113.361 4.6543 113.352 4.73665H111.579V0.952813C111.653 0.952813 111.714 0.944145 111.774 0.944145C111.835 0.944145 111.883 0.93981 111.913 0.93981H111.969C112.047 0.931142 112.091 0.896467 112.091 0.831453V0.714427H111.579H111.272H110.756V0.831453C110.756 0.896467 110.799 0.931142 110.877 0.93981H110.938C110.968 0.93981 111.012 0.944145 111.072 0.944145C111.133 0.944145 111.198 0.952813 111.272 0.952813V4.76266C111.198 4.76266 111.133 4.76699 111.072 4.76699C111.012 4.76699 110.968 4.77566 110.938 4.77566H110.877C110.799 4.78 110.756 4.81467 110.756 4.88402V5.00538H111.272H113.56H113.612H113.668V4.88835V4.64563V4.20354H113.547H113.517ZM125.167 4.30756C125.154 4.29456 125.137 4.28155 125.12 4.28155C125.107 4.28155 125.102 4.28155 125.089 4.29022C125.081 4.29456 125.072 4.30756 125.059 4.31189C124.972 4.38991 124.881 4.45926 124.799 4.51994C124.712 4.58062 124.621 4.62396 124.517 4.66297C124.413 4.70631 124.305 4.73665 124.183 4.75399C124.062 4.77566 123.928 4.78433 123.776 4.78433C123.533 4.78433 123.299 4.74532 123.091 4.6543C122.879 4.56762 122.705 4.44192 122.554 4.27722C122.402 4.11252 122.272 3.90447 122.19 3.67042C122.103 3.43203 122.06 3.15897 122.06 2.85557C122.06 2.56084 122.103 2.29211 122.19 2.05372C122.281 1.81967 122.402 1.6203 122.558 1.44692C122.714 1.28655 122.905 1.15653 123.122 1.0655C123.343 0.974485 123.577 0.931142 123.837 0.931142C124.227 0.931142 124.587 0.991822 124.899 1.13485C124.92 1.52061 124.938 1.74599 124.938 1.79367C124.942 1.89336 124.981 1.94103 125.063 1.94103H125.211V0.970151C124.699 0.762104 124.24 0.66675 123.837 0.66675C123.529 0.66675 123.252 0.714427 122.987 0.822784C122.736 0.931142 122.502 1.07851 122.32 1.27355C122.133 1.46859 121.995 1.69831 121.891 1.9627C121.787 2.23143 121.739 2.5305 121.739 2.85557C121.739 3.18931 121.795 3.48838 121.891 3.76144C121.986 4.0345 122.129 4.25988 122.302 4.45059C122.48 4.64563 122.692 4.793 122.94 4.89702C123.191 4.99671 123.455 5.05306 123.754 5.05306C123.928 5.05306 124.092 5.04006 124.244 5.00972C124.392 4.97937 124.53 4.93603 124.656 4.88402C124.777 4.82767 124.894 4.76266 124.998 4.68898C125.102 4.61096 125.198 4.53294 125.289 4.43325L125.167 4.30756ZM132.778 2.85557C132.778 2.5305 132.722 2.2271 132.627 1.95837C132.527 1.68964 132.388 1.45993 132.206 1.26488C132.024 1.07417 131.812 0.922473 131.565 0.81845C131.313 0.714427 131.027 0.658081 130.724 0.658081C130.421 0.658081 130.147 0.714427 129.9 0.81845C129.653 0.922473 129.432 1.07417 129.25 1.26488C129.068 1.45993 128.93 1.68964 128.834 1.95837C128.734 2.2271 128.682 2.5305 128.682 2.85557C128.682 3.18931 128.734 3.49271 128.834 3.76144C128.93 4.02583 129.068 4.25988 129.25 4.45059C129.432 4.64563 129.653 4.793 129.9 4.89702C130.147 4.99671 130.421 5.05306 130.724 5.05306C131.027 5.05306 131.313 4.99671 131.565 4.89702C131.812 4.793 132.024 4.64563 132.206 4.45059C132.388 4.25988 132.527 4.02583 132.627 3.76144C132.722 3.49271 132.778 3.18931 132.778 2.85557ZM132.449 2.85557C132.449 3.15897 132.414 3.4277 132.328 3.66175C132.241 3.90014 132.128 4.10818 131.977 4.26855C131.825 4.43325 131.643 4.56762 131.43 4.6543C131.218 4.73665 130.988 4.78 130.724 4.78C130.473 4.78 130.238 4.73665 130.026 4.6543C129.814 4.56762 129.632 4.43325 129.48 4.26855C129.328 4.10818 129.207 3.90014 129.125 3.66175C129.038 3.4277 129.003 3.15897 129.003 2.85557C129.003 2.56084 129.038 2.28778 129.125 2.04939C129.207 1.811 129.328 1.60729 129.48 1.44259C129.632 1.27789 129.814 1.14352 130.026 1.06117C130.238 0.974485 130.473 0.926807 130.724 0.926807C130.988 0.926807 131.218 0.974485 131.43 1.06117C131.643 1.14352 131.825 1.27789 131.977 1.44259C132.128 1.60729 132.241 1.811 132.328 2.04939C132.414 2.28778 132.449 2.56084 132.449 2.85557ZM140.069 0.714427H139.796H139.271V0.831453C139.271 0.896467 139.31 0.931142 139.393 0.93981H139.453C139.484 0.93981 139.531 0.944145 139.592 0.944145C139.653 0.944145 139.726 0.952813 139.796 0.952813V4.31189C139.796 4.36824 139.796 4.42892 139.804 4.4896L137.026 0.770773C137.004 0.744767 136.996 0.72743 136.974 0.718761C136.957 0.714427 136.939 0.710093 136.909 0.710093H136.757H136.242V0.831453C136.242 0.896467 136.285 0.931142 136.363 0.93981H136.424C136.454 0.93981 136.497 0.944145 136.558 0.944145C136.619 0.944145 136.684 0.952813 136.757 0.952813V4.76266C136.684 4.76266 136.619 4.76699 136.558 4.76699C136.497 4.76699 136.454 4.77566 136.424 4.77566H136.363C136.285 4.78 136.242 4.81467 136.242 4.88402V5.00538H136.757H137.026H137.55V4.88402C137.55 4.81467 137.511 4.78 137.429 4.77566H137.368C137.338 4.77566 137.286 4.76699 137.225 4.76699C137.165 4.76699 137.095 4.76266 137.026 4.76266V1.39491C137.026 1.33857 137.026 1.27789 137.017 1.21721L139.809 4.9447C139.839 4.98804 139.869 5.00538 139.917 5.00538H140.069V0.952813C140.142 0.952813 140.203 0.944145 140.264 0.944145C140.324 0.944145 140.372 0.93981 140.402 0.93981H140.459C140.537 0.931142 140.58 0.896467 140.58 0.831453V0.714427H140.069ZM147.892 0.714427H147.619H147.09V0.831453C147.09 0.896467 147.134 0.931142 147.212 0.93981H147.272C147.303 0.93981 147.35 0.944145 147.411 0.944145C147.472 0.944145 147.545 0.952813 147.619 0.952813V4.31189C147.619 4.36824 147.619 4.42892 147.623 4.4896L144.845 0.770773C144.828 0.744767 144.815 0.72743 144.797 0.718761C144.78 0.714427 144.763 0.710093 144.732 0.710093H144.581H144.065V0.831453C144.065 0.896467 144.104 0.931142 144.186 0.93981H144.247C144.277 0.93981 144.316 0.944145 144.377 0.944145C144.438 0.944145 144.507 0.952813 144.581 0.952813V4.76266C144.507 4.76266 144.438 4.76699 144.377 4.76699C144.316 4.76699 144.277 4.77566 144.247 4.77566H144.186C144.104 4.78 144.065 4.81467 144.065 4.88402V5.00538H144.581H144.845H145.374V4.88402C145.374 4.81467 145.331 4.78 145.253 4.77566H145.192C145.161 4.77566 145.105 4.76699 145.044 4.76699C144.984 4.76699 144.919 4.76266 144.845 4.76266V1.39491C144.845 1.33857 144.845 1.27789 144.841 1.21721L147.632 4.9447C147.662 4.98804 147.693 5.00538 147.74 5.00538H147.892V0.952813C147.966 0.952813 148.026 0.944145 148.087 0.944145C148.148 0.944145 148.195 0.93981 148.226 0.93981H148.282C148.36 0.931142 148.404 0.896467 148.404 0.831453V0.714427H147.892ZM152.4 0.714427H151.884V0.831453C151.884 0.896467 151.927 0.931142 152.005 0.93981H152.066C152.096 0.93981 152.14 0.944145 152.2 0.944145C152.261 0.944145 152.326 0.952813 152.4 0.952813V4.76266C152.326 4.76266 152.261 4.76699 152.2 4.76699C152.14 4.76699 152.096 4.77566 152.066 4.77566H152.005C151.927 4.78 151.893 4.81467 151.893 4.88402V5.00538H152.4H154.974V4.74532V4.11252H154.823C154.736 4.11252 154.701 4.16886 154.693 4.26422C154.693 4.27722 154.688 4.29889 154.688 4.34223C154.688 4.38558 154.688 4.44626 154.684 4.53728C154.675 4.6283 154.671 4.68898 154.671 4.74532H152.712V2.95526H154.42V2.70387H152.712V0.970151H154.671C154.684 1.23454 154.693 1.39925 154.693 1.45559C154.701 1.55095 154.736 1.59862 154.823 1.59862H154.974V0.970151V0.714427H152.4ZM161.996 4.30756C161.983 4.29456 161.966 4.28155 161.944 4.28155C161.935 4.28155 161.927 4.28155 161.914 4.29022C161.909 4.29456 161.896 4.30756 161.883 4.31189C161.801 4.38991 161.71 4.45926 161.623 4.51994C161.541 4.58062 161.45 4.62396 161.346 4.66297C161.242 4.70631 161.133 4.73665 161.012 4.75399C160.891 4.77566 160.756 4.78433 160.605 4.78433C160.362 4.78433 160.123 4.74532 159.92 4.6543C159.707 4.56762 159.53 4.44192 159.378 4.27722C159.226 4.11252 159.101 3.90447 159.014 3.67042C158.932 3.43203 158.888 3.15897 158.888 2.85557C158.888 2.56084 158.932 2.29211 159.014 2.05372C159.105 1.81967 159.226 1.6203 159.387 1.44692C159.543 1.28655 159.729 1.15653 159.95 1.0655C160.167 0.974485 160.405 0.931142 160.665 0.931142C161.055 0.931142 161.411 0.991822 161.727 1.13485C161.744 1.52061 161.762 1.74599 161.762 1.79367C161.771 1.89336 161.805 1.94103 161.892 1.94103H162.035V0.970151C161.528 0.762104 161.064 0.66675 160.665 0.66675C160.358 0.66675 160.076 0.714427 159.816 0.822784C159.56 0.931142 159.33 1.07851 159.148 1.27355C158.962 1.46859 158.819 1.69831 158.719 1.9627C158.615 2.23143 158.567 2.5305 158.567 2.85557C158.567 3.18931 158.619 3.48838 158.719 3.76144C158.815 4.0345 158.953 4.25988 159.131 4.45059C159.304 4.64563 159.517 4.793 159.768 4.89702C160.015 4.99671 160.284 5.05306 160.579 5.05306C160.756 5.05306 160.921 5.04006 161.073 5.00972C161.216 4.97937 161.359 4.93603 161.484 4.88402C161.606 4.82767 161.723 4.76266 161.823 4.68898C161.927 4.61096 162.026 4.53294 162.117 4.43325L161.996 4.30756ZM169.117 0.714427H169.035H165.871H165.78H165.736V1.59862H165.888C165.975 1.59862 166.009 1.55095 166.018 1.45559C166.018 1.41225 166.031 1.25621 166.04 0.974485H167.297V4.76266C167.223 4.76266 167.162 4.76699 167.102 4.76699C167.041 4.76699 166.993 4.77566 166.963 4.77566H166.911C166.829 4.78 166.79 4.81467 166.79 4.88402V5.00538H167.297H167.609H168.125V4.88402C168.125 4.81467 168.081 4.78 168.003 4.77566H167.943C167.912 4.77566 167.869 4.76699 167.808 4.76699C167.747 4.76699 167.678 4.76266 167.609 4.76266V0.974485H168.857C168.874 1.28655 168.883 1.44259 168.883 1.45559C168.887 1.55095 168.931 1.59862 169.013 1.59862H169.16V0.714427H169.117ZM173.894 0.93981C173.972 0.931142 174.011 0.896467 174.011 0.831453V0.710093H173.499H173.191H172.676V0.831453C172.676 0.896467 172.715 0.931142 172.797 0.93981H172.858C172.888 0.93981 172.927 0.944145 172.988 0.944145C173.048 0.944145 173.118 0.952813 173.191 0.952813V4.76266C173.118 4.76266 173.048 4.76699 172.988 4.76699C172.927 4.76699 172.888 4.77566 172.858 4.77566H172.797C172.715 4.78 172.676 4.81467 172.676 4.88402V5.00538H173.191H173.499H174.011V4.88402C174.011 4.81467 173.972 4.78 173.894 4.77566H173.833C173.803 4.77566 173.759 4.76699 173.698 4.76699C173.638 4.76699 173.573 4.76266 173.499 4.76266V0.952813C173.573 0.952813 173.638 0.944145 173.698 0.944145C173.759 0.944145 173.803 0.93981 173.833 0.93981H173.894ZM181.643 2.85557C181.643 2.5305 181.587 2.2271 181.492 1.95837C181.392 1.68964 181.253 1.45993 181.071 1.26488C180.889 1.07417 180.677 0.922473 180.43 0.81845C180.178 0.714427 179.897 0.658081 179.593 0.658081C179.29 0.658081 179.017 0.714427 178.765 0.81845C178.518 0.922473 178.297 1.07417 178.115 1.26488C177.933 1.45993 177.794 1.68964 177.699 1.95837C177.599 2.2271 177.547 2.5305 177.547 2.85557C177.547 3.18931 177.599 3.49271 177.699 3.76144C177.794 4.02583 177.933 4.25988 178.115 4.45059C178.297 4.64563 178.518 4.793 178.765 4.89702C179.017 4.99671 179.29 5.05306 179.593 5.05306C179.897 5.05306 180.178 4.99671 180.43 4.89702C180.677 4.793 180.889 4.64563 181.071 4.45059C181.253 4.25988 181.392 4.02583 181.492 3.76144C181.587 3.49271 181.643 3.18931 181.643 2.85557ZM181.314 2.85557C181.314 3.15897 181.279 3.4277 181.192 3.66175C181.11 3.90014 180.993 4.10818 180.841 4.26855C180.69 4.43325 180.508 4.56762 180.295 4.6543C180.083 4.73665 179.853 4.78 179.593 4.78C179.337 4.78 179.108 4.73665 178.895 4.6543C178.683 4.56762 178.501 4.43325 178.349 4.26855C178.197 4.10818 178.076 3.90014 177.989 3.66175C177.903 3.4277 177.868 3.15897 177.868 2.85557C177.868 2.56084 177.903 2.28778 177.989 2.04939C178.076 1.811 178.197 1.60729 178.349 1.44259C178.501 1.27789 178.683 1.14352 178.895 1.06117C179.108 0.974485 179.337 0.926807 179.593 0.926807C179.853 0.926807 180.083 0.974485 180.295 1.06117C180.508 1.14352 180.69 1.27789 180.841 1.44259C180.993 1.60729 181.11 1.811 181.192 2.04939C181.279 2.28778 181.314 2.56084 181.314 2.85557ZM188.938 0.714427H188.665H188.136V0.831453C188.136 0.896467 188.179 0.931142 188.257 0.93981H188.318C188.348 0.93981 188.396 0.944145 188.457 0.944145C188.517 0.944145 188.591 0.952813 188.665 0.952813V4.31189C188.665 4.36824 188.665 4.42892 188.669 4.4896L185.891 0.770773C185.874 0.744767 185.861 0.72743 185.843 0.718761C185.822 0.714427 185.804 0.710093 185.774 0.710093H185.622H185.106V0.831453C185.106 0.896467 185.15 0.931142 185.228 0.93981H185.288C185.319 0.93981 185.362 0.944145 185.423 0.944145C185.483 0.944145 185.548 0.952813 185.622 0.952813V4.76266C185.548 4.76266 185.483 4.76699 185.423 4.76699C185.362 4.76699 185.319 4.77566 185.288 4.77566H185.228C185.15 4.78 185.106 4.81467 185.106 4.88402V5.00538H185.622H185.891H186.42V4.88402C186.42 4.81467 186.376 4.78 186.298 4.77566H186.238C186.207 4.77566 186.151 4.76699 186.09 4.76699C186.03 4.76699 185.965 4.76266 185.891 4.76266V1.39491C185.891 1.33857 185.891 1.27789 185.882 1.21721L188.673 4.9447C188.704 4.98804 188.734 5.00538 188.786 5.00538H188.938V0.952813C189.007 0.952813 189.068 0.944145 189.129 0.944145C189.189 0.944145 189.241 0.93981 189.272 0.93981H189.324C189.402 0.931142 189.445 0.896467 189.445 0.831453V0.714427H188.938ZM195.409 3.31067C195.348 3.19798 195.266 3.08529 195.162 3.00727C195.058 2.92925 194.95 2.86424 194.824 2.80789C194.694 2.75155 194.555 2.70387 194.421 2.66053C194.286 2.62152 194.156 2.56951 194.026 2.5305C193.901 2.47849 193.784 2.42647 193.68 2.35713C193.58 2.29211 193.498 2.21409 193.437 2.1144C193.376 2.01905 193.342 1.89769 193.342 1.75032C193.342 1.64197 193.368 1.53794 193.407 1.43825C193.45 1.33423 193.511 1.24755 193.589 1.16953C193.671 1.09151 193.766 1.03083 193.888 0.987488C194.009 0.944145 194.143 0.922473 194.299 0.922473C194.59 0.922473 194.859 0.97015 195.101 1.07417C195.119 1.41658 195.132 1.61163 195.132 1.64197C195.136 1.74166 195.175 1.79367 195.257 1.79367H195.405V0.913805C195.023 0.749101 194.659 0.66675 194.299 0.66675C194.1 0.66675 193.922 0.69709 193.766 0.75777C193.61 0.81845 193.48 0.896467 193.376 1.00049C193.277 1.10451 193.19 1.21721 193.133 1.35157C193.081 1.48593 193.055 1.62463 193.055 1.772C193.055 1.95404 193.086 2.11007 193.146 2.23143C193.207 2.35279 193.294 2.44815 193.398 2.53483C193.498 2.62152 193.61 2.6822 193.736 2.73421C193.862 2.79056 194.005 2.83823 194.135 2.88158C194.269 2.92492 194.399 2.96393 194.529 3.00727C194.659 3.05061 194.772 3.11129 194.876 3.17631C194.98 3.24566 195.058 3.32367 195.119 3.41903C195.179 3.51872 195.21 3.64441 195.21 3.79611C195.21 3.93481 195.188 4.06917 195.136 4.19053C195.088 4.31189 195.023 4.41592 194.932 4.50694C194.841 4.59796 194.724 4.67164 194.59 4.71932C194.46 4.77566 194.308 4.793 194.135 4.793C193.797 4.793 193.511 4.73665 193.281 4.6283C193.277 4.54161 193.277 4.45059 193.268 4.35524C193.264 4.25988 193.264 4.17753 193.255 4.11252C193.251 4.0475 193.251 4.00849 193.251 4.00416C193.246 3.90447 193.203 3.85679 193.116 3.85679H192.973V4.65864V4.73665V4.81467C193.342 4.97504 193.723 5.05306 194.126 5.05306C194.343 5.05306 194.538 5.01838 194.707 4.94903C194.876 4.88402 195.023 4.78433 195.136 4.67164C195.253 4.55461 195.348 4.41592 195.409 4.25988C195.47 4.09951 195.5 3.93048 195.5 3.74843C195.5 3.57073 195.47 3.4277 195.409 3.31067Z" fill="white" />
</svg>
