<svg width="260" height="65" viewBox="0 0 260 65" fill="none" xmlns="http://www.w3.org/2000/svg">
	<path d="M0 50.7251H33.9368V39.8772H31.5981V48.9337H8.50909V26.1432H25.7263V31.9653H27.866V18.4801H25.7263V24.3021H8.50909V3.90018H31.001V12.7576H33.3895V2.10879H0V3.85042H5.82201V48.9834H0V50.7251ZM41.0526 50.7251H55.1847V48.9834H49.4124V25.3471C49.4124 19.326 54.3388 16.4399 59.7129 16.4399C66.3311 16.4399 69.7646 20.1222 69.7646 28.2332V48.9834H63.9923V50.7251H78.1244V48.9834H72.3521V27.8849C72.3521 19.0275 68.5703 14.4992 60.4096 14.4992C54.2392 14.4992 50.8057 17.6342 49.6115 20.9681H49.3627V14.7978L41.0526 15.8428V17.0868L46.8249 17.5844V48.9834H41.0526V50.7251ZM92.4555 50.9241C94.7445 50.9241 99.0737 50.6753 101.114 50.327V48.9337H91.2612V17.1365H101.114V15.3452H91.2612V5.44277H89.5196L88.9225 12.4093C88.7234 14.4992 87.9273 15.3452 85.0909 15.3452H83.7474V17.1365H88.7235V47.6399C88.7235 50.0284 89.5196 50.9241 92.4555 50.9241ZM106.14 50.7251H121.665V48.9834H114.5V25.5959C114.5 20.8188 119.575 15.9423 123.904 15.9423C124.103 15.9423 125.347 15.9423 125.497 16.0418V16.1911C124.949 16.2906 124.302 17.1365 124.302 18.1815C124.302 19.5251 125.298 20.4208 126.741 20.4208C128.134 20.4208 129.129 19.5251 129.129 17.9327C129.129 15.6935 127.487 14.4992 124.651 14.4992C119.227 14.4992 115.943 18.281 114.699 21.615H114.4V14.7978L106.14 15.8428V17.0868L111.912 17.5844V48.9834H106.14V50.7251ZM149.033 51.571C156.199 51.571 160.379 47.0925 162.32 43.1117L161.026 42.3653C158.936 46.1471 155.303 49.481 149.233 49.481C141.719 49.481 136.494 44.2562 136.494 34.4035V31.8657H163.116V30.9203C163.116 21.3165 157.692 14.4992 149.033 14.4992C139.927 14.4992 133.657 20.9184 133.657 33.0102C133.657 45.1519 139.927 51.571 149.033 51.571ZM136.494 30.1739C136.494 21.9633 141.37 16.2409 149.033 16.2409C156.299 16.2409 160.329 22.1126 160.329 30.0246V30.1739H136.494ZM169.784 64.6581H185.309V62.9164H178.144V44.9528H178.343C179.835 48.4361 183.518 51.571 189.638 51.571C198.844 51.571 204.467 45.3011 204.467 33.0102C204.467 20.7691 198.844 14.4992 189.638 14.4992C183.567 14.4992 179.835 17.6342 178.343 21.1174H178.144V14.7978L169.784 15.8428V17.0868L175.556 17.5844V62.9164H169.784V64.6581ZM189.24 49.6303C183.518 49.6303 178.144 46.1471 178.144 40.7729V25.2973C178.144 19.9231 183.518 16.4399 189.24 16.4399C197.152 16.4399 201.631 22.1126 201.631 31.0696V35.0007C201.631 43.9576 197.152 49.6303 189.24 49.6303ZM218.4 4.74612C219.943 4.74612 220.789 3.70114 220.789 2.50688V2.30784C220.789 1.11358 219.943 0.0686035 218.5 0.0686035C216.957 0.0686035 216.111 1.11358 216.111 2.30784V2.50688C216.111 3.70114 216.957 4.74612 218.4 4.74612ZM211.384 50.7251H225.516V48.9834H219.744V14.7978L211.384 15.8428V17.0868L217.156 17.5844V48.9834H211.384V50.7251ZM247.411 51.571C254.626 51.571 258.109 47.0925 260 43.1117L258.706 42.3653C256.616 46.1471 253.581 49.481 247.56 49.481C239.648 49.481 234.722 43.5595 234.722 34.7021V31.0198C234.722 22.1624 239.648 16.2409 247.56 16.2409C250.595 16.2409 253.233 16.6389 255.223 17.9327V18.1318C254.029 18.5298 253.233 19.5251 253.233 20.7193C253.233 22.1624 254.078 23.1576 255.671 23.1576C257.213 23.1576 258.109 22.1624 258.109 20.57C258.109 17.2858 253.481 14.4992 247.411 14.4992C238.056 14.4992 231.885 21.0676 231.885 33.0102C231.885 45.0026 238.056 51.571 247.411 51.571Z" fill="white" />
</svg>
