<svg width="1200" height="630" viewBox="0 0 1200 630" fill="none" xmlns="http://www.w3.org/2000/svg">
	<path d="M1200 0H0V630H1200V0Z" fill="#28003A" />
	<path d="M125 476.091H249V436.455H240.455V469.545H156.091V386.273H219V407.545H226.818V358.273H219V379.545H156.091V305H238.273V337.364H247V298.455H125V304.818H146.273V469.727H125V476.091ZM275 476.091H326.636V469.727H305.545V383.364C305.545 361.364 323.545 350.818 343.182 350.818C367.364 350.818 379.909 364.273 379.909 393.909V469.727H358.818V476.091H410.455V469.727H389.364V392.636C389.364 360.273 375.545 343.727 345.727 343.727C323.182 343.727 310.636 355.182 306.273 367.364H305.364V344.818L275 348.636V353.182L296.091 355V469.727H275V476.091ZM462.818 476.818C471.182 476.818 487 475.909 494.455 474.636V469.545H458.455V353.364H494.455V346.818H458.455V310.636H452.091L449.909 336.091C449.182 343.727 446.273 346.818 435.909 346.818H431V353.364H449.182V464.818C449.182 473.545 452.091 476.818 462.818 476.818ZM512.818 476.091H569.545V469.727H543.364V384.273C543.364 366.818 561.909 349 577.727 349C578.455 349 583 349 583.545 349.364V349.909C581.545 350.273 579.182 353.364 579.182 357.182C579.182 362.091 582.818 365.364 588.091 365.364C593.182 365.364 596.818 362.091 596.818 356.273C596.818 348.091 590.818 343.727 580.455 343.727C560.636 343.727 548.636 357.545 544.091 369.727H543V344.818L512.818 348.636V353.182L533.909 355V469.727H512.818V476.091ZM669.545 479.182C695.727 479.182 711 462.818 718.091 448.273L713.364 445.545C705.727 459.364 692.455 471.545 670.273 471.545C642.818 471.545 623.727 452.455 623.727 416.455V407.182H721V403.727C721 368.636 701.182 343.727 669.545 343.727C636.273 343.727 613.364 367.182 613.364 411.364C613.364 455.727 636.273 479.182 669.545 479.182ZM623.727 401C623.727 371 641.545 350.091 669.545 350.091C696.091 350.091 710.818 371.545 710.818 400.455V401H623.727ZM745.364 527H802.091V520.636H775.909V455H776.636C782.091 467.727 795.545 479.182 817.909 479.182C851.545 479.182 872.091 456.273 872.091 411.364C872.091 366.636 851.545 343.727 817.909 343.727C795.727 343.727 782.091 355.182 776.636 367.909H775.909V344.818L745.364 348.636V353.182L766.455 355V520.636H745.364V527ZM816.455 472.091C795.545 472.091 775.909 459.364 775.909 439.727V383.182C775.909 363.545 795.545 350.818 816.455 350.818C845.364 350.818 861.727 371.545 861.727 404.273V418.636C861.727 451.364 845.364 472.091 816.455 472.091ZM923 308.091C928.636 308.091 931.727 304.273 931.727 299.909V299.182C931.727 294.818 928.636 291 923.364 291C917.727 291 914.636 294.818 914.636 299.182V299.909C914.636 304.273 917.727 308.091 923 308.091ZM897.364 476.091H949V469.727H927.909V344.818L897.364 348.636V353.182L918.455 355V469.727H897.364V476.091ZM1029 479.182C1055.36 479.182 1068.09 462.818 1075 448.273L1070.27 445.545C1062.64 459.364 1051.55 471.545 1029.55 471.545C1000.64 471.545 982.636 449.909 982.636 417.545V404.091C982.636 371.727 1000.64 350.091 1029.55 350.091C1040.64 350.091 1050.27 351.545 1057.55 356.273V357C1053.18 358.455 1050.27 362.091 1050.27 366.455C1050.27 371.727 1053.36 375.364 1059.18 375.364C1064.82 375.364 1068.09 371.727 1068.09 365.909C1068.09 353.909 1051.18 343.727 1029 343.727C994.818 343.727 972.273 367.727 972.273 411.364C972.273 455.182 994.818 479.182 1029 479.182Z" fill="white" />
	<path d="M684.454 102.474C695.889 102.474 705.372 92.9911 705.372 81.5562C705.372 70.1213 695.889 60.6386 684.454 60.6386C680.55 60.6386 676.924 61.7542 673.856 63.4276C652.66 48.367 627.28 40 600.505 40C567.037 40 535.521 53.1083 511.815 76.8149C488.108 100.521 475 132.037 475 165.505C475 198.973 488.108 230.489 511.815 254.196C535.521 277.902 567.037 291.01 600.505 291.01C633.973 291.01 665.489 277.902 689.196 254.196C708.998 234.394 721.548 208.456 724.895 180.845C725.453 175.267 723.779 169.689 720.154 165.505C716.249 161.043 710.671 158.812 705.093 158.812H677.203V151.56C677.203 147.656 674.135 144.588 670.23 144.588C658.517 144.588 647.639 140.125 639.551 131.758L627.28 119.487C616.403 108.61 601.9 102.753 586.56 102.753H579.588C575.683 102.753 572.615 105.821 572.615 109.725V130.643H530.78C526.875 130.643 523.808 133.711 523.808 137.615C523.808 141.52 526.875 144.588 530.78 144.588H572.615V186.423H530.78C526.875 186.423 523.808 189.491 523.808 193.395C523.808 197.3 526.875 200.368 530.78 200.368H572.615V221.285C572.615 225.19 575.683 228.258 579.588 228.258H586.56C601.9 228.258 616.403 222.401 627.28 211.524L639.551 199.252C647.639 191.164 658.795 186.423 670.23 186.423C674.135 186.423 677.203 183.355 677.203 179.45V172.478H705.093C706.766 172.478 708.719 173.314 709.834 174.709C710.392 175.546 711.508 176.94 711.229 179.171C708.161 203.715 697.005 226.863 679.434 244.434C658.238 265.352 630.348 277.065 600.505 277.065C570.663 277.065 542.773 265.352 521.576 244.434C500.659 223.238 488.945 195.348 488.945 165.505C488.945 135.663 500.659 107.773 521.576 86.5764C542.773 65.6589 570.663 53.945 600.505 53.945C623.933 53.945 645.966 61.1964 664.652 74.3048C663.816 76.536 663.258 79.0461 663.258 81.5562C663.537 93.27 672.74 102.474 684.454 102.474V102.474ZM684.454 74.5837C688.359 74.5837 691.427 77.6516 691.427 81.5562C691.427 85.4608 688.359 88.5287 684.454 88.5287C680.55 88.5287 677.482 85.4608 677.482 81.5562C677.482 77.6516 680.55 74.5837 684.454 74.5837ZM663.258 172.757C650.428 174.151 638.715 180.008 629.511 189.212L617.239 201.483C609.151 209.572 597.995 214.313 586.56 214.313V116.698C598.274 116.698 609.151 121.16 617.239 129.527L629.511 141.799C638.715 151.002 650.428 156.58 663.258 158.254V172.757Z" fill="#E46948" />
	<path d="M230.579 558.127C230.891 558.092 231.065 557.954 231.065 557.693V557.225H229.036H228.152C228.031 557.225 227.961 557.225 227.892 557.243C227.823 557.277 227.771 557.347 227.701 557.451L220.94 569.361C220.87 569.483 220.818 569.604 220.784 569.725C220.732 569.847 220.68 569.986 220.628 570.107C220.541 569.847 220.437 569.604 220.316 569.379L213.381 557.451C213.294 557.347 213.259 557.277 213.173 557.243C213.103 557.225 213.034 557.225 212.913 557.225H212.063H210V557.693C210 557.954 210.173 558.092 210.485 558.127H210.728C210.85 558.127 211.023 558.144 211.266 558.144C211.508 558.144 211.768 558.179 212.063 558.179V573.418C211.768 573.418 211.508 573.436 211.266 573.436C211.023 573.436 210.85 573.47 210.728 573.47H210.485C210.173 573.488 210 573.626 210 573.904V574.389H212.063H213.138H215.236V573.904C215.236 573.626 215.08 573.488 214.75 573.47H214.508C214.386 573.47 214.196 573.436 213.953 573.436C213.71 573.436 213.415 573.418 213.138 573.418V559.757C213.138 559.531 213.138 559.306 213.103 559.063L220.056 571.078C220.177 571.303 220.333 571.407 220.541 571.407H220.732C220.94 571.407 221.096 571.303 221.217 571.078L227.961 559.063C227.944 559.306 227.944 559.531 227.944 559.757V573.418C227.649 573.418 227.355 573.436 227.112 573.436C226.869 573.436 226.678 573.47 226.557 573.47H226.314C226.002 573.488 225.829 573.626 225.829 573.904V574.389H227.944H229.036H231.065V573.904C231.065 573.626 230.891 573.488 230.579 573.47H230.371C230.25 573.47 230.042 573.436 229.799 573.436C229.556 573.436 229.314 573.418 229.036 573.418V558.179C229.314 558.179 229.556 558.144 229.799 558.144C230.042 558.144 230.25 558.127 230.371 558.127H230.579ZM261.647 573.349L260.85 573.262L254.297 557.208H253.066L246.477 573.262L245.697 573.349C245.385 573.366 245.246 573.54 245.246 573.834V574.389H246.027H246.529H246.963H247.136H249.425V573.834C249.425 573.505 249.217 573.366 248.853 573.349C248.835 573.349 248.783 573.314 248.714 573.314C248.645 573.314 248.541 573.297 248.367 573.297C248.211 573.297 247.986 573.297 247.743 573.262L249.442 569.067L249.563 568.755H257.764L257.885 569.067L259.584 573.262C259.342 573.297 259.151 573.297 258.978 573.297C258.804 573.297 258.683 573.314 258.613 573.314C258.544 573.314 258.492 573.349 258.475 573.349C258.111 573.366 257.92 573.505 257.92 573.834V574.389H260.191H260.365H260.833H261.318H262.116V573.834C262.116 573.54 261.96 573.366 261.647 573.349ZM253.326 559.479C253.378 559.341 253.447 559.167 253.499 558.994C253.551 558.82 253.62 558.664 253.672 558.456C253.707 558.664 253.794 558.82 253.828 558.994C253.88 559.167 253.95 559.306 254.002 559.462L257.4 567.836H249.945L253.326 559.479ZM291.121 573.47H290.965H290.653C290.514 573.47 290.341 573.436 290.167 573.436L283.18 566.137C283.042 565.963 282.92 565.842 282.764 565.738C282.625 565.651 282.469 565.582 282.313 565.53C282.452 565.478 282.573 565.409 282.695 565.305C282.816 565.218 282.955 565.096 283.111 564.923L289.682 558.144H290.15C290.289 558.144 290.393 558.127 290.462 558.127H290.601C290.93 558.092 291.086 557.954 291.086 557.693V557.208H289.387H289.179H286.041V557.693C286.041 557.954 286.214 558.092 286.526 558.127H286.821C286.994 558.127 287.202 558.144 287.497 558.144H288.277L281.915 564.68C281.828 564.767 281.724 564.871 281.655 564.923C281.585 564.975 281.481 564.992 281.377 565.044C281.291 565.062 281.221 565.114 281.1 565.114C280.978 565.131 280.822 565.131 280.684 565.131H279.661V558.144C279.956 558.144 280.216 558.127 280.458 558.127C280.701 558.127 280.874 558.092 280.996 558.092H281.238C281.551 558.075 281.707 557.936 281.707 557.659V557.208H279.661H278.43H276.384V557.659C276.384 557.936 276.557 558.075 276.87 558.092H277.095C277.216 558.092 277.407 558.127 277.65 558.127C277.892 558.127 278.135 558.144 278.43 558.144V573.418C278.135 573.418 277.892 573.436 277.65 573.436C277.407 573.436 277.216 573.47 277.095 573.47H276.87C276.557 573.488 276.384 573.626 276.384 573.904V574.389H278.43H279.661H281.707V573.904C281.707 573.626 281.551 573.488 281.238 573.47H280.996C280.874 573.47 280.701 573.436 280.458 573.436C280.216 573.436 279.956 573.418 279.661 573.418V566.102H280.77C280.978 566.102 281.134 566.102 281.256 566.137C281.377 566.154 281.481 566.189 281.585 566.223C281.672 566.275 281.776 566.327 281.845 566.397C281.915 566.466 281.984 566.518 282.088 566.622L288.763 573.436C288.52 573.436 288.225 573.47 287.931 573.47H287.237H286.925C286.596 573.488 286.44 573.626 286.44 573.904V574.389H289.682H289.786H290.08H291.086H291.606V573.904C291.606 573.626 291.433 573.488 291.121 573.47ZM308.007 557.225H305.944V557.693C305.944 557.954 306.117 558.092 306.429 558.127H306.672C306.794 558.127 306.967 558.144 307.21 558.144C307.452 558.144 307.712 558.179 308.007 558.179V573.418C307.712 573.418 307.452 573.436 307.21 573.436C306.967 573.436 306.794 573.47 306.672 573.47H306.429C306.117 573.488 305.979 573.626 305.979 573.904V574.389H308.007H318.305V573.349V570.818H317.699C317.352 570.818 317.213 571.043 317.178 571.425C317.178 571.477 317.161 571.563 317.161 571.737C317.161 571.91 317.161 572.153 317.144 572.517C317.109 572.881 317.092 573.124 317.092 573.349H309.255V566.189H316.086V565.183H309.255V558.248H317.092C317.144 559.306 317.178 559.965 317.178 560.19C317.213 560.571 317.352 560.762 317.699 560.762H318.305V558.248V557.225H308.007ZM361.96 558.543C360.955 557.659 359.412 557.225 357.401 557.225H353.222H351.159V557.693C351.159 557.954 351.333 558.092 351.645 558.127H351.888C352.009 558.127 352.182 558.144 352.425 558.144C352.668 558.144 352.945 558.179 353.222 558.179V573.418C352.945 573.418 352.668 573.436 352.425 573.436C352.182 573.436 352.009 573.47 351.888 573.47H351.645C351.333 573.488 351.159 573.626 351.159 573.904V574.389H353.222H354.471H356.499V573.904C356.499 573.626 356.343 573.488 356.014 573.47H355.806C355.684 573.47 355.494 573.436 355.251 573.436C355.008 573.436 354.766 573.418 354.471 573.418V567.472H357.401C358.354 567.472 359.204 567.316 359.949 567.073C360.712 566.813 361.336 566.466 361.874 566.015C362.411 565.547 362.81 565.01 363.087 564.386C363.382 563.762 363.503 563.068 363.503 562.323C363.503 560.693 362.983 559.41 361.96 558.543ZM361.926 563.97C361.7 564.49 361.388 564.923 360.972 565.287C360.556 565.651 360.053 565.946 359.447 566.154C358.84 566.379 358.164 566.466 357.401 566.466H354.471V558.196H357.401C359.013 558.196 360.227 558.56 361.042 559.271C361.839 559.965 362.255 560.988 362.255 562.305C362.255 562.912 362.134 563.467 361.926 563.97ZM391.555 573.47H391.382H391.07C390.931 573.47 390.775 573.436 390.636 573.436L385.487 566.952C385.348 566.761 385.14 566.587 384.95 566.466C385.712 566.397 386.389 566.223 386.995 565.963C387.602 565.703 388.088 565.357 388.521 564.94C388.937 564.524 389.267 564.039 389.492 563.519C389.717 562.981 389.839 562.375 389.839 561.716C389.839 560.242 389.353 559.15 388.382 558.37C387.411 557.607 385.92 557.225 383.927 557.225H379.766H377.72V557.693C377.72 557.954 377.859 558.092 378.188 558.127H378.431C378.552 558.127 378.708 558.144 378.951 558.144C379.194 558.144 379.471 558.179 379.766 558.179V573.418C379.471 573.418 379.194 573.436 378.951 573.436C378.708 573.436 378.552 573.47 378.431 573.47H378.188C377.859 573.488 377.703 573.626 377.703 573.904V574.389H379.766H380.997H383.042V573.904C383.042 573.626 382.869 573.488 382.557 573.47H382.314C382.193 573.47 382.02 573.436 381.777 573.436C381.534 573.436 381.291 573.418 380.997 573.418V566.622H383.042C383.372 566.622 383.615 566.639 383.771 566.709C383.909 566.796 384.048 566.934 384.204 567.108L389.717 574.077C389.804 574.198 389.873 574.268 389.977 574.32C390.081 574.355 390.203 574.389 390.324 574.389H390.445H391.382H392.023V573.904C392.023 573.626 391.867 573.488 391.555 573.47ZM383.771 565.703H380.997V558.196H383.927C385.47 558.196 386.631 558.508 387.429 559.098C388.226 559.67 388.625 560.606 388.625 561.82C388.625 562.427 388.521 562.929 388.296 563.415C388.088 563.9 387.741 564.282 387.325 564.628C386.926 564.975 386.406 565.253 385.799 565.426C385.192 565.599 384.516 565.703 383.771 565.703ZM421.774 565.79C421.774 564.49 421.548 563.276 421.167 562.201C420.786 561.126 420.213 560.207 419.485 559.427C418.757 558.664 417.908 558.058 416.919 557.641C415.931 557.225 414.787 557 413.573 557C412.36 557 411.267 557.225 410.262 557.641C409.274 558.058 408.407 558.664 407.679 559.427C406.95 560.207 406.378 561.126 405.997 562.201C405.615 563.276 405.39 564.49 405.39 565.79C405.39 567.125 405.615 568.339 405.997 569.413C406.378 570.471 406.95 571.407 407.679 572.17C408.407 572.95 409.274 573.54 410.262 573.956C411.267 574.355 412.36 574.58 413.573 574.58C414.787 574.58 415.931 574.355 416.919 573.956C417.908 573.54 418.757 572.95 419.485 572.17C420.213 571.407 420.786 570.471 421.167 569.413C421.548 568.339 421.774 567.125 421.774 565.79ZM420.456 565.79C420.456 567.004 420.317 568.078 419.971 569.015C419.641 569.968 419.173 570.8 418.566 571.442C417.96 572.101 417.231 572.638 416.382 572.985C415.532 573.314 414.613 573.488 413.573 573.488C412.55 573.488 411.631 573.314 410.782 572.985C409.932 572.638 409.204 572.101 408.597 571.442C407.991 570.8 407.505 569.968 407.158 569.015C406.829 568.078 406.673 567.004 406.673 565.79C406.673 564.611 406.829 563.519 407.158 562.565C407.505 561.612 407.991 560.797 408.597 560.138C409.204 559.479 409.932 558.942 410.782 558.612C411.631 558.266 412.55 558.075 413.573 558.075C414.613 558.075 415.532 558.266 416.382 558.612C417.231 558.942 417.96 559.479 418.566 560.138C419.173 560.797 419.641 561.612 419.971 562.565C420.317 563.519 420.456 564.611 420.456 565.79ZM448.473 557.225H447.866H438.175H436.112V557.693C436.112 557.954 436.285 558.092 436.597 558.127H436.84C436.961 558.127 437.134 558.144 437.377 558.144C437.62 558.144 437.897 558.179 438.175 558.179V573.418C437.897 573.418 437.62 573.436 437.377 573.436C437.134 573.436 436.961 573.47 436.84 573.47H436.597C436.285 573.488 436.112 573.626 436.112 573.904V574.389H438.175H439.423H441.451V573.904C441.451 573.626 441.313 573.488 441.001 573.47H440.758C440.637 573.47 440.463 573.436 440.221 573.436C439.978 573.436 439.718 573.418 439.423 573.418V566.501H445.82V565.461H439.423V558.248H447.398C447.45 559.41 447.502 560.069 447.502 560.19C447.519 560.571 447.693 560.762 448.04 560.762H448.612V557.225H448.473ZM464.753 557.225H462.689V557.693C462.689 557.954 462.863 558.092 463.175 558.127H463.418C463.539 558.127 463.712 558.144 463.955 558.144C464.198 558.144 464.475 558.179 464.753 558.179V573.418C464.475 573.418 464.198 573.436 463.955 573.436C463.712 573.436 463.539 573.47 463.418 573.47H463.175C462.863 573.488 462.724 573.626 462.724 573.904V574.389H464.753H475.051V573.349V570.818H474.444C474.097 570.818 473.959 571.043 473.941 571.425C473.941 571.477 473.907 571.563 473.907 571.737C473.907 571.91 473.907 572.153 473.889 572.517C473.855 572.881 473.837 573.124 473.837 573.349H466.001V566.189H472.849V565.183H466.001V558.248H473.837C473.889 559.306 473.941 559.965 473.941 560.19C473.959 560.571 474.097 560.762 474.444 560.762H475.051V558.248V557.225H464.753ZM499.86 567.61C499.618 567.16 499.271 566.709 498.855 566.397C498.456 566.085 498.005 565.825 497.503 565.599C497 565.374 496.428 565.183 495.908 565.01C495.37 564.854 494.833 564.646 494.33 564.49C493.81 564.282 493.359 564.074 492.943 563.796C492.527 563.536 492.215 563.224 491.972 562.825C491.729 562.444 491.573 561.958 491.573 561.369C491.573 560.936 491.677 560.519 491.851 560.121C492.024 559.705 492.267 559.358 492.579 559.046C492.891 558.734 493.272 558.491 493.758 558.318C494.243 558.144 494.781 558.058 495.422 558.058C496.584 558.058 497.641 558.248 498.612 558.664C498.699 560.034 498.734 560.814 498.734 560.936C498.768 561.334 498.907 561.542 499.254 561.542H499.826V558.023C498.3 557.364 496.844 557.035 495.422 557.035C494.607 557.035 493.914 557.156 493.272 557.399C492.648 557.641 492.145 557.954 491.729 558.37C491.313 558.786 490.966 559.236 490.758 559.774C490.533 560.311 490.446 560.866 490.446 561.456C490.446 562.184 490.568 562.808 490.81 563.293C491.053 563.779 491.383 564.16 491.799 564.507C492.215 564.854 492.648 565.096 493.151 565.305C493.671 565.53 494.226 565.721 494.763 565.894C495.301 566.067 495.804 566.223 496.341 566.397C496.844 566.57 497.312 566.813 497.728 567.073C498.127 567.35 498.456 567.662 498.699 568.044C498.942 568.443 499.063 568.945 499.063 569.552C499.063 570.107 498.959 570.644 498.768 571.13C498.577 571.615 498.3 572.031 497.936 572.395C497.572 572.76 497.121 573.054 496.584 573.245C496.046 573.47 495.439 573.54 494.763 573.54C493.394 573.54 492.267 573.314 491.331 572.881C491.313 572.534 491.313 572.17 491.296 571.789C491.261 571.407 491.261 571.078 491.244 570.818C491.209 570.558 491.209 570.402 491.209 570.384C491.192 569.986 491.018 569.795 490.689 569.795H490.1V573.002V573.314V573.626C491.573 574.268 493.116 574.58 494.711 574.58C495.578 574.58 496.358 574.441 497.034 574.164C497.728 573.904 498.3 573.505 498.768 573.054C499.219 572.586 499.618 572.031 499.86 571.407C500.103 570.766 500.225 570.09 500.225 569.361C500.225 568.651 500.103 568.078 499.86 567.61ZM524.462 567.61C524.219 567.16 523.89 566.709 523.474 566.397C523.058 566.085 522.624 565.825 522.121 565.599C521.601 565.374 521.046 565.183 520.509 565.01C519.972 564.854 519.451 564.646 518.931 564.49C518.429 564.282 517.96 564.074 517.544 563.796C517.146 563.536 516.816 563.224 516.573 562.825C516.331 562.444 516.192 561.958 516.192 561.369C516.192 560.936 516.296 560.519 516.452 560.121C516.625 559.705 516.868 559.358 517.18 559.046C517.51 558.734 517.891 558.491 518.377 558.318C518.862 558.144 519.399 558.058 520.024 558.058C521.185 558.058 522.26 558.248 523.231 558.664C523.3 560.034 523.352 560.814 523.352 560.936C523.37 561.334 523.526 561.542 523.855 561.542H524.445V558.023C522.919 557.364 521.463 557.035 520.024 557.035C519.226 557.035 518.515 557.156 517.891 557.399C517.267 557.641 516.747 557.954 516.331 558.37C515.932 558.786 515.585 559.236 515.36 559.774C515.152 560.311 515.048 560.866 515.048 561.456C515.048 562.184 515.169 562.808 515.412 563.293C515.655 563.779 516.001 564.16 516.417 564.507C516.816 564.854 517.267 565.096 517.77 565.305C518.273 565.53 518.845 565.721 519.365 565.894C519.902 566.067 520.422 566.223 520.942 566.397C521.463 566.57 521.913 566.813 522.329 567.073C522.746 567.35 523.058 567.662 523.3 568.044C523.543 568.443 523.664 568.945 523.664 569.552C523.664 570.107 523.578 570.644 523.37 571.13C523.179 571.615 522.919 572.031 522.555 572.395C522.191 572.76 521.723 573.054 521.185 573.245C520.665 573.47 520.058 573.54 519.365 573.54C518.012 573.54 516.868 573.314 515.949 572.881C515.932 572.534 515.932 572.17 515.897 571.789C515.88 571.407 515.88 571.078 515.845 570.818C515.828 570.558 515.828 570.402 515.828 570.384C515.811 569.986 515.637 569.795 515.291 569.795H514.718V573.002V573.314V573.626C516.192 574.268 517.718 574.58 519.33 574.58C520.197 574.58 520.977 574.441 521.653 574.164C522.329 573.904 522.919 573.505 523.37 573.054C523.838 572.586 524.219 572.031 524.462 571.407C524.705 570.766 524.826 570.09 524.826 569.361C524.826 568.651 524.705 568.078 524.462 567.61ZM544.036 558.127C544.348 558.092 544.486 557.954 544.486 557.693V557.208H542.458H541.21H539.146V557.693C539.146 557.954 539.32 558.092 539.632 558.127H539.875C539.996 558.127 540.169 558.144 540.412 558.144C540.655 558.144 540.932 558.179 541.21 558.179V573.418C540.932 573.418 540.655 573.436 540.412 573.436C540.169 573.436 539.996 573.47 539.875 573.47H539.632C539.32 573.488 539.146 573.626 539.146 573.904V574.389H541.21H542.458H544.486V573.904C544.486 573.626 544.348 573.488 544.036 573.47H543.793C543.671 573.47 543.498 573.436 543.255 573.436C543.013 573.436 542.753 573.418 542.458 573.418V558.179C542.753 558.179 543.013 558.144 543.255 558.144C543.498 558.144 543.671 558.127 543.793 558.127H544.036ZM575.034 565.79C575.034 564.49 574.809 563.276 574.428 562.201C574.029 561.126 573.474 560.207 572.746 559.427C572.018 558.664 571.168 558.058 570.18 557.641C569.174 557.225 568.03 557 566.817 557C565.603 557 564.511 557.225 563.523 557.641C562.534 558.058 561.65 558.664 560.922 559.427C560.194 560.207 559.639 561.126 559.258 562.201C558.859 563.276 558.651 564.49 558.651 565.79C558.651 567.125 558.859 568.339 559.258 569.413C559.639 570.471 560.194 571.407 560.922 572.17C561.65 572.95 562.534 573.54 563.523 573.956C564.511 574.355 565.603 574.58 566.817 574.58C568.03 574.58 569.174 574.355 570.18 573.956C571.168 573.54 572.018 572.95 572.746 572.17C573.474 571.407 574.029 570.471 574.428 569.413C574.809 568.339 575.034 567.125 575.034 565.79ZM573.717 565.79C573.717 567.004 573.578 568.078 573.231 569.015C572.885 569.968 572.434 570.8 571.827 571.442C571.22 572.101 570.492 572.638 569.643 572.985C568.793 573.314 567.874 573.488 566.817 573.488C565.811 573.488 564.875 573.314 564.025 572.985C563.176 572.638 562.448 572.101 561.841 571.442C561.234 570.8 560.749 569.968 560.419 569.015C560.072 568.078 559.934 567.004 559.934 565.79C559.934 564.611 560.072 563.519 560.419 562.565C560.749 561.612 561.234 560.797 561.841 560.138C562.448 559.479 563.176 558.942 564.025 558.612C564.875 558.266 565.811 558.075 566.817 558.075C567.874 558.075 568.793 558.266 569.643 558.612C570.492 558.942 571.22 559.479 571.827 560.138C572.434 560.797 572.885 561.612 573.231 562.565C573.578 563.519 573.717 564.611 573.717 565.79ZM604.196 557.225H603.103H601.006V557.693C601.006 557.954 601.162 558.092 601.491 558.127H601.734C601.855 558.127 602.046 558.144 602.289 558.144C602.531 558.144 602.826 558.179 603.103 558.179V571.615C603.103 571.841 603.103 572.083 603.138 572.326L592.025 557.451C591.938 557.347 591.904 557.277 591.817 557.243C591.747 557.225 591.678 557.208 591.557 557.208H590.95H588.887V557.693C588.887 557.954 589.06 558.092 589.372 558.127H589.615C589.736 558.127 589.91 558.144 590.152 558.144C590.395 558.144 590.655 558.179 590.95 558.179V573.418C590.655 573.418 590.395 573.436 590.152 573.436C589.91 573.436 589.736 573.47 589.615 573.47H589.372C589.06 573.488 588.887 573.626 588.887 573.904V574.389H590.95H592.025H594.123V573.904C594.123 573.626 593.967 573.488 593.637 573.47H593.395C593.273 573.47 593.065 573.436 592.822 573.436C592.58 573.436 592.302 573.418 592.025 573.418V559.947C592.025 559.722 592.025 559.479 591.99 559.236L603.155 574.146C603.277 574.32 603.398 574.389 603.589 574.389H604.196V558.179C604.49 558.179 604.733 558.144 604.976 558.144C605.219 558.144 605.409 558.127 605.531 558.127H605.756C606.068 558.092 606.241 557.954 606.241 557.693V557.225H604.196ZM636.287 573.349L635.489 573.262L628.936 557.208H627.705L621.117 573.262L620.337 573.349C620.024 573.366 619.886 573.54 619.886 573.834V574.389H620.666H621.169H621.602H621.776H624.064V573.834C624.064 573.505 623.856 573.366 623.492 573.349C623.475 573.349 623.423 573.314 623.353 573.314C623.284 573.314 623.18 573.297 623.006 573.297C622.85 573.297 622.625 573.297 622.382 573.262L624.081 569.067L624.203 568.755H632.403L632.525 569.067L634.224 573.262C633.981 573.297 633.79 573.297 633.617 573.297C633.443 573.297 633.322 573.314 633.253 573.314C633.183 573.314 633.131 573.349 633.114 573.349C632.75 573.366 632.559 573.505 632.559 573.834V574.389H634.83H635.004H635.472H635.957H636.755V573.834C636.755 573.54 636.599 573.366 636.287 573.349ZM627.965 559.479C628.017 559.341 628.086 559.167 628.138 558.994C628.19 558.82 628.26 558.664 628.312 558.456C628.346 558.664 628.433 558.82 628.468 558.994C628.52 559.167 628.589 559.306 628.641 559.462L632.039 567.836H624.584L627.965 559.479ZM662.067 571.182C661.72 571.182 661.582 571.373 661.564 571.771C661.564 571.789 661.564 571.893 661.53 571.979C661.512 572.083 661.512 572.257 661.478 572.465C661.46 572.69 661.443 572.985 661.408 573.314H654.317V558.179C654.612 558.179 654.855 558.144 655.098 558.144C655.34 558.144 655.531 558.127 655.652 558.127H655.878C656.19 558.092 656.363 557.954 656.363 557.693V557.225H654.317H653.086H651.023V557.693C651.023 557.954 651.197 558.092 651.509 558.127H651.752C651.873 558.127 652.046 558.144 652.289 558.144C652.532 558.144 652.792 558.179 653.086 558.179V573.418C652.792 573.418 652.532 573.436 652.289 573.436C652.046 573.436 651.873 573.47 651.752 573.47H651.509C651.197 573.488 651.023 573.626 651.023 573.904V574.389H653.086H662.24H662.449H662.674V573.921V572.95V571.182H662.188H662.067ZM708.669 571.598C708.617 571.546 708.548 571.494 708.479 571.494C708.427 571.494 708.409 571.494 708.357 571.529C708.323 571.546 708.288 571.598 708.236 571.615C707.889 571.927 707.525 572.205 707.196 572.447C706.849 572.69 706.485 572.864 706.069 573.02C705.653 573.193 705.219 573.314 704.734 573.384C704.248 573.47 703.711 573.505 703.104 573.505C702.133 573.505 701.197 573.349 700.365 572.985C699.515 572.638 698.822 572.135 698.215 571.477C697.608 570.818 697.088 569.986 696.759 569.049C696.412 568.096 696.239 567.004 696.239 565.79C696.239 564.611 696.412 563.536 696.759 562.583C697.123 561.646 697.608 560.849 698.232 560.155C698.857 559.514 699.619 558.994 700.486 558.63C701.37 558.266 702.307 558.092 703.347 558.092C704.907 558.092 706.346 558.335 707.595 558.907C707.681 560.45 707.751 561.352 707.751 561.542C707.768 561.941 707.924 562.132 708.253 562.132H708.843V558.248C706.797 557.416 704.959 557.035 703.347 557.035C702.116 557.035 701.006 557.225 699.949 557.659C698.943 558.092 698.007 558.682 697.279 559.462C696.533 560.242 695.979 561.161 695.563 562.218C695.146 563.293 694.956 564.49 694.956 565.79C694.956 567.125 695.181 568.321 695.563 569.413C695.944 570.506 696.516 571.407 697.21 572.17C697.92 572.95 698.77 573.54 699.758 573.956C700.764 574.355 701.821 574.58 703.018 574.58C703.711 574.58 704.37 574.528 704.977 574.407C705.566 574.285 706.121 574.112 706.624 573.904C707.109 573.678 707.577 573.418 707.993 573.124C708.409 572.812 708.791 572.499 709.155 572.101L708.669 571.598ZM739.114 565.79C739.114 564.49 738.888 563.276 738.507 562.201C738.108 561.126 737.553 560.207 736.825 559.427C736.097 558.664 735.247 558.058 734.259 557.641C733.254 557.225 732.109 557 730.896 557C729.682 557 728.59 557.225 727.602 557.641C726.613 558.058 725.729 558.664 725.001 559.427C724.273 560.207 723.718 561.126 723.337 562.201C722.938 563.276 722.73 564.49 722.73 565.79C722.73 567.125 722.938 568.339 723.337 569.413C723.718 570.471 724.273 571.407 725.001 572.17C725.729 572.95 726.613 573.54 727.602 573.956C728.59 574.355 729.682 574.58 730.896 574.58C732.109 574.58 733.254 574.355 734.259 573.956C735.247 573.54 736.097 572.95 736.825 572.17C737.553 571.407 738.108 570.471 738.507 569.413C738.888 568.339 739.114 567.125 739.114 565.79ZM737.796 565.79C737.796 567.004 737.657 568.078 737.311 569.015C736.964 569.968 736.513 570.8 735.906 571.442C735.299 572.101 734.571 572.638 733.722 572.985C732.872 573.314 731.953 573.488 730.896 573.488C729.89 573.488 728.954 573.314 728.104 572.985C727.255 572.638 726.527 572.101 725.92 571.442C725.313 570.8 724.828 569.968 724.498 569.015C724.152 568.078 724.013 567.004 724.013 565.79C724.013 564.611 724.152 563.519 724.498 562.565C724.828 561.612 725.313 560.797 725.92 560.138C726.527 559.479 727.255 558.942 728.104 558.612C728.954 558.266 729.89 558.075 730.896 558.075C731.953 558.075 732.872 558.266 733.722 558.612C734.571 558.942 735.299 559.479 735.906 560.138C736.513 560.797 736.964 561.612 737.311 562.565C737.657 563.519 737.796 564.611 737.796 565.79ZM768.275 557.225H767.182H765.085V557.693C765.085 557.954 765.241 558.092 765.57 558.127H765.813C765.934 558.127 766.125 558.144 766.368 558.144C766.61 558.144 766.905 558.179 767.182 558.179V571.615C767.182 571.841 767.182 572.083 767.217 572.326L756.104 557.451C756.017 557.347 755.983 557.277 755.896 557.243C755.827 557.225 755.757 557.208 755.636 557.208H755.029H752.966V557.693C752.966 557.954 753.139 558.092 753.451 558.127H753.694C753.815 558.127 753.989 558.144 754.232 558.144C754.474 558.144 754.734 558.179 755.029 558.179V573.418C754.734 573.418 754.474 573.436 754.232 573.436C753.989 573.436 753.815 573.47 753.694 573.47H753.451C753.139 573.488 752.966 573.626 752.966 573.904V574.389H755.029H756.104H758.202V573.904C758.202 573.626 758.046 573.488 757.716 573.47H757.474C757.352 573.47 757.144 573.436 756.902 573.436C756.659 573.436 756.381 573.418 756.104 573.418V559.947C756.104 559.722 756.104 559.479 756.069 559.236L767.234 574.146C767.356 574.32 767.477 574.389 767.668 574.389H768.275V558.179C768.569 558.179 768.812 558.144 769.055 558.144C769.298 558.144 769.488 558.127 769.61 558.127H769.835C770.147 558.092 770.321 557.954 770.321 557.693V557.225H768.275ZM799.568 557.225H798.476H796.361V557.693C796.361 557.954 796.534 558.092 796.846 558.127H797.089C797.21 558.127 797.401 558.144 797.644 558.144C797.887 558.144 798.181 558.179 798.476 558.179V571.615C798.476 571.841 798.476 572.083 798.493 572.326L787.38 557.451C787.311 557.347 787.259 557.277 787.19 557.243C787.12 557.225 787.051 557.208 786.93 557.208H786.323H784.26V557.693C784.26 557.954 784.416 558.092 784.745 558.127H784.988C785.109 558.127 785.265 558.144 785.508 558.144C785.751 558.144 786.028 558.179 786.323 558.179V573.418C786.028 573.418 785.751 573.436 785.508 573.436C785.265 573.436 785.109 573.47 784.988 573.47H784.745C784.416 573.488 784.26 573.626 784.26 573.904V574.389H786.323H787.38H789.495V573.904C789.495 573.626 789.322 573.488 789.01 573.47H788.767C788.646 573.47 788.421 573.436 788.178 573.436C787.935 573.436 787.675 573.418 787.38 573.418V559.947C787.38 559.722 787.38 559.479 787.363 559.236L798.528 574.146C798.649 574.32 798.771 574.389 798.962 574.389H799.568V558.179C799.863 558.179 800.106 558.144 800.348 558.144C800.591 558.144 800.782 558.127 800.903 558.127H801.129C801.441 558.092 801.614 557.954 801.614 557.693V557.225H799.568ZM817.599 557.225H815.536V557.693C815.536 557.954 815.709 558.092 816.021 558.127H816.264C816.385 558.127 816.559 558.144 816.802 558.144C817.044 558.144 817.304 558.179 817.599 558.179V573.418C817.304 573.418 817.044 573.436 816.802 573.436C816.559 573.436 816.385 573.47 816.264 573.47H816.021C815.709 573.488 815.571 573.626 815.571 573.904V574.389H817.599H827.897V573.349V570.818H827.29C826.944 570.818 826.805 571.043 826.77 571.425C826.77 571.477 826.753 571.563 826.753 571.737C826.753 571.91 826.753 572.153 826.736 572.517C826.701 572.881 826.684 573.124 826.684 573.349H818.847V566.189H825.678V565.183H818.847V558.248H826.684C826.736 559.306 826.77 559.965 826.77 560.19C826.805 560.571 826.944 560.762 827.29 560.762H827.897V558.248V557.225H817.599ZM855.984 571.598C855.932 571.546 855.862 571.494 855.775 571.494C855.741 571.494 855.706 571.494 855.654 571.529C855.637 571.546 855.585 571.598 855.533 571.615C855.203 571.927 854.839 572.205 854.493 572.447C854.163 572.69 853.799 572.864 853.383 573.02C852.967 573.193 852.533 573.314 852.048 573.384C851.563 573.47 851.025 573.505 850.418 573.505C849.447 573.505 848.494 573.349 847.679 572.985C846.83 572.638 846.119 572.135 845.512 571.477C844.905 570.818 844.402 569.986 844.056 569.049C843.726 568.096 843.553 567.004 843.553 565.79C843.553 564.611 843.726 563.536 844.056 562.583C844.42 561.646 844.905 560.849 845.547 560.155C846.171 559.514 846.916 558.994 847.8 558.63C848.667 558.266 849.621 558.092 850.661 558.092C852.221 558.092 853.643 558.335 854.909 558.907C854.978 560.45 855.047 561.352 855.047 561.542C855.082 561.941 855.221 562.132 855.567 562.132H856.14V558.248C854.111 557.416 852.256 557.035 850.661 557.035C849.43 557.035 848.303 557.225 847.263 557.659C846.24 558.092 845.321 558.682 844.593 559.462C843.848 560.242 843.275 561.161 842.877 562.218C842.461 563.293 842.27 564.49 842.27 565.79C842.27 567.125 842.478 568.321 842.877 569.413C843.258 570.506 843.813 571.407 844.524 572.17C845.217 572.95 846.067 573.54 847.072 573.956C848.06 574.355 849.135 574.58 850.314 574.58C851.025 574.58 851.684 574.528 852.291 574.407C852.863 574.285 853.435 574.112 853.938 573.904C854.423 573.678 854.891 573.418 855.29 573.124C855.706 572.812 856.105 572.499 856.469 572.101L855.984 571.598ZM884.469 557.225H884.139H871.483H871.119H870.946V560.762H871.552C871.899 560.762 872.038 560.571 872.072 560.19C872.072 560.017 872.124 559.393 872.159 558.266H877.187V573.418C876.892 573.418 876.649 573.436 876.407 573.436C876.164 573.436 875.973 573.47 875.852 573.47H875.644C875.315 573.488 875.158 573.626 875.158 573.904V574.389H877.187H878.435H880.498V573.904C880.498 573.626 880.325 573.488 880.013 573.47H879.77C879.649 573.47 879.475 573.436 879.233 573.436C878.99 573.436 878.713 573.418 878.435 573.418V558.266H883.428C883.498 559.514 883.532 560.138 883.532 560.19C883.55 560.571 883.723 560.762 884.052 560.762H884.642V557.225H884.469ZM903.574 558.127C903.886 558.092 904.042 557.954 904.042 557.693V557.208H901.996H900.766H898.702V557.693C898.702 557.954 898.858 558.092 899.188 558.127H899.431C899.552 558.127 899.708 558.144 899.951 558.144C900.193 558.144 900.471 558.179 900.766 558.179V573.418C900.471 573.418 900.193 573.436 899.951 573.436C899.708 573.436 899.552 573.47 899.431 573.47H899.188C898.858 573.488 898.702 573.626 898.702 573.904V574.389H900.766H901.996H904.042V573.904C904.042 573.626 903.886 573.488 903.574 573.47H903.331C903.21 573.47 903.037 573.436 902.794 573.436C902.551 573.436 902.291 573.418 901.996 573.418V558.179C902.291 558.179 902.551 558.144 902.794 558.144C903.037 558.144 903.21 558.127 903.331 558.127H903.574ZM934.573 565.79C934.573 564.49 934.348 563.276 933.966 562.201C933.567 561.126 933.013 560.207 932.284 559.427C931.556 558.664 930.707 558.058 929.719 557.641C928.713 557.225 927.586 557 926.373 557C925.159 557 924.067 557.225 923.061 557.641C922.073 558.058 921.189 558.664 920.461 559.427C919.732 560.207 919.178 561.126 918.796 562.201C918.397 563.276 918.189 564.49 918.189 565.79C918.189 567.125 918.397 568.339 918.796 569.413C919.178 570.471 919.732 571.407 920.461 572.17C921.189 572.95 922.073 573.54 923.061 573.956C924.067 574.355 925.159 574.58 926.373 574.58C927.586 574.58 928.713 574.355 929.719 573.956C930.707 573.54 931.556 572.95 932.284 572.17C933.013 571.407 933.567 570.471 933.966 569.413C934.348 568.339 934.573 567.125 934.573 565.79ZM933.255 565.79C933.255 567.004 933.117 568.078 932.77 569.015C932.441 569.968 931.972 570.8 931.366 571.442C930.759 572.101 930.031 572.638 929.181 572.985C928.332 573.314 927.413 573.488 926.373 573.488C925.35 573.488 924.431 573.314 923.581 572.985C922.732 572.638 922.004 572.101 921.397 571.442C920.79 570.8 920.305 569.968 919.958 569.015C919.611 568.078 919.472 567.004 919.472 565.79C919.472 564.611 919.611 563.519 919.958 562.565C920.305 561.612 920.79 560.797 921.397 560.138C922.004 559.479 922.732 558.942 923.581 558.612C924.431 558.266 925.35 558.075 926.373 558.075C927.413 558.075 928.332 558.266 929.181 558.612C930.031 558.942 930.759 559.479 931.366 560.138C931.972 560.797 932.441 561.612 932.77 562.565C933.117 563.519 933.255 564.611 933.255 565.79ZM963.751 557.225H962.659H960.544V557.693C960.544 557.954 960.718 558.092 961.03 558.127H961.272C961.394 558.127 961.584 558.144 961.827 558.144C962.07 558.144 962.364 558.179 962.659 558.179V571.615C962.659 571.841 962.659 572.083 962.677 572.326L951.563 557.451C951.494 557.347 951.442 557.277 951.373 557.243C951.286 557.225 951.217 557.208 951.095 557.208H950.489H948.425V557.693C948.425 557.954 948.599 558.092 948.911 558.127H949.154C949.275 558.127 949.448 558.144 949.691 558.144C949.934 558.144 950.194 558.179 950.489 558.179V573.418C950.194 573.418 949.934 573.436 949.691 573.436C949.448 573.436 949.275 573.47 949.154 573.47H948.911C948.599 573.488 948.425 573.626 948.425 573.904V574.389H950.489H951.563H953.679V573.904C953.679 573.626 953.505 573.488 953.193 573.47H952.95C952.829 573.47 952.604 573.436 952.361 573.436C952.118 573.436 951.858 573.418 951.563 573.418V559.947C951.563 559.722 951.563 559.479 951.529 559.236L962.694 574.146C962.815 574.32 962.937 574.389 963.145 574.389H963.751V558.179C964.029 558.179 964.272 558.144 964.514 558.144C964.757 558.144 964.965 558.127 965.086 558.127H965.295C965.607 558.092 965.78 557.954 965.78 557.693V557.225H963.751ZM989.636 567.61C989.393 567.16 989.064 566.709 988.648 566.397C988.232 566.085 987.798 565.825 987.295 565.599C986.775 565.374 986.22 565.183 985.683 565.01C985.146 564.854 984.625 564.646 984.105 564.49C983.603 564.282 983.134 564.074 982.718 563.796C982.32 563.536 981.99 563.224 981.747 562.825C981.505 562.444 981.366 561.958 981.366 561.369C981.366 560.936 981.47 560.519 981.626 560.121C981.799 559.705 982.042 559.358 982.354 559.046C982.684 558.734 983.065 558.491 983.551 558.318C984.036 558.144 984.573 558.058 985.198 558.058C986.359 558.058 987.434 558.248 988.405 558.664C988.474 560.034 988.526 560.814 988.526 560.936C988.544 561.334 988.7 561.542 989.029 561.542H989.619V558.023C988.093 557.364 986.637 557.035 985.198 557.035C984.4 557.035 983.689 557.156 983.065 557.399C982.441 557.641 981.921 557.954 981.505 558.37C981.106 558.786 980.759 559.236 980.534 559.774C980.326 560.311 980.222 560.866 980.222 561.456C980.222 562.184 980.343 562.808 980.586 563.293C980.829 563.779 981.175 564.16 981.591 564.507C981.99 564.854 982.441 565.096 982.944 565.305C983.447 565.53 984.019 565.721 984.539 565.894C985.076 566.067 985.596 566.223 986.116 566.397C986.637 566.57 987.087 566.813 987.503 567.073C987.92 567.35 988.232 567.662 988.474 568.044C988.717 568.443 988.838 568.945 988.838 569.552C988.838 570.107 988.752 570.644 988.544 571.13C988.353 571.615 988.093 572.031 987.729 572.395C987.365 572.76 986.897 573.054 986.359 573.245C985.839 573.47 985.232 573.54 984.539 573.54C983.186 573.54 982.042 573.314 981.123 572.881C981.106 572.534 981.106 572.17 981.071 571.789C981.054 571.407 981.054 571.078 981.019 570.818C981.002 570.558 981.002 570.402 981.002 570.384C980.985 569.986 980.811 569.795 980.465 569.795H979.892V573.002V573.314V573.626C981.366 574.268 982.892 574.58 984.504 574.58C985.371 574.58 986.151 574.441 986.827 574.164C987.503 573.904 988.093 573.505 988.544 573.054C989.012 572.586 989.393 572.031 989.636 571.407C989.879 570.766 990 570.09 990 569.361C990 568.651 989.879 568.078 989.636 567.61Z" fill="white" />
</svg>
