<svg width="300" height="300" viewBox="0 0 300 300" fill="none" xmlns="http://www.w3.org/2000/svg">
	<path d="M300 0H0V300H300V0Z" fill="#28003A" />
	<path d="M20 211.725H53.9368V200.877H51.5981V209.934H28.5091V187.143H45.7263V192.965H47.866V179.48H45.7263V185.302H28.5091V164.9H51.001V173.758H53.3895V163.109H20V164.85H25.822V209.983H20V211.725ZM61.0526 211.725H75.1847V209.983H69.4124V186.347C69.4124 180.326 74.3388 177.44 79.7129 177.44C86.3311 177.44 89.7646 181.122 89.7646 189.233V209.983H83.9923V211.725H98.1244V209.983H92.3521V188.885C92.3521 180.027 88.5703 175.499 80.4096 175.499C74.2392 175.499 70.8057 178.634 69.6115 181.968H69.3627V175.798L61.0526 176.843V178.087L66.8249 178.584V209.983H61.0526V211.725ZM112.456 211.924C114.745 211.924 119.074 211.675 121.114 211.327V209.934H111.261V178.137H121.114V176.345H111.261V166.443H109.52L108.922 173.409C108.723 175.499 107.927 176.345 105.091 176.345H103.747V178.137H108.723V208.64C108.723 211.028 109.52 211.924 112.456 211.924ZM126.14 211.725H141.665V209.983H134.5V186.596C134.5 181.819 139.575 176.942 143.904 176.942C144.103 176.942 145.347 176.942 145.497 177.042V177.191C144.949 177.291 144.302 178.137 144.302 179.182C144.302 180.525 145.298 181.421 146.741 181.421C148.134 181.421 149.129 180.525 149.129 178.933C149.129 176.693 147.487 175.499 144.651 175.499C139.227 175.499 135.943 179.281 134.699 182.615H134.4V175.798L126.14 176.843V178.087L131.912 178.584V209.983H126.14V211.725ZM169.033 212.571C176.199 212.571 180.379 208.093 182.32 204.112L181.026 203.365C178.936 207.147 175.303 210.481 169.233 210.481C161.719 210.481 156.494 205.256 156.494 195.404V192.866H183.116V191.92C183.116 182.316 177.692 175.499 169.033 175.499C159.927 175.499 153.657 181.918 153.657 194.01C153.657 206.152 159.927 212.571 169.033 212.571ZM156.494 191.174C156.494 182.963 161.37 177.241 169.033 177.241C176.299 177.241 180.329 183.113 180.329 191.025V191.174H156.494ZM189.784 225.658H205.309V223.916H198.144V205.953H198.343C199.835 209.436 203.518 212.571 209.638 212.571C218.844 212.571 224.467 206.301 224.467 194.01C224.467 181.769 218.844 175.499 209.638 175.499C203.567 175.499 199.835 178.634 198.343 182.117H198.144V175.798L189.784 176.843V178.087L195.556 178.584V223.916H189.784V225.658ZM209.24 210.63C203.518 210.63 198.144 207.147 198.144 201.773V186.297C198.144 180.923 203.518 177.44 209.24 177.44C217.152 177.44 221.631 183.113 221.631 192.07V196.001C221.631 204.958 217.152 210.63 209.24 210.63ZM238.4 165.746C239.943 165.746 240.789 164.701 240.789 163.507V163.308C240.789 162.114 239.943 161.069 238.5 161.069C236.957 161.069 236.111 162.114 236.111 163.308V163.507C236.111 164.701 236.957 165.746 238.4 165.746ZM231.384 211.725H245.516V209.983H239.744V175.798L231.384 176.843V178.087L237.156 178.584V209.983H231.384V211.725ZM267.411 212.571C274.626 212.571 278.109 208.093 280 204.112L278.706 203.365C276.616 207.147 273.581 210.481 267.56 210.481C259.648 210.481 254.722 204.56 254.722 195.702V192.02C254.722 183.162 259.648 177.241 267.56 177.241C270.595 177.241 273.233 177.639 275.223 178.933V179.132C274.029 179.53 273.233 180.525 273.233 181.719C273.233 183.162 274.078 184.158 275.671 184.158C277.213 184.158 278.109 183.162 278.109 181.57C278.109 178.286 273.481 175.499 267.411 175.499C258.056 175.499 251.885 182.068 251.885 194.01C251.885 206.003 258.056 212.571 267.411 212.571Z" fill="white" />
	<path d="M177.967 80.635C181.754 80.635 184.894 77.4949 184.894 73.7082C184.894 69.9216 181.754 66.7814 177.967 66.7814C176.674 66.7814 175.473 67.1508 174.457 67.705C167.438 62.7177 159.034 59.947 150.167 59.947C139.084 59.947 128.648 64.2878 120.798 72.1381C112.947 79.9885 108.606 90.4249 108.606 101.508C108.606 112.591 112.947 123.027 120.798 130.877C128.648 138.728 139.084 143.069 150.167 143.069C161.25 143.069 171.687 138.728 179.537 130.877C186.094 124.32 190.25 115.731 191.359 106.587C191.543 104.74 190.989 102.893 189.789 101.508C188.496 100.03 186.648 99.2912 184.801 99.2912H175.566V96.8899C175.566 95.5969 174.55 94.581 173.257 94.581C169.378 94.581 165.776 93.1033 163.097 90.3325L159.034 86.2688C155.432 82.6669 150.629 80.7274 145.549 80.7274H143.24C141.947 80.7274 140.932 81.7433 140.932 83.0363V89.9631H127.078C125.785 89.9631 124.769 90.979 124.769 92.272C124.769 93.5651 125.785 94.581 127.078 94.581H140.932V108.435H127.078C125.785 108.435 124.769 109.451 124.769 110.744C124.769 112.037 125.785 113.052 127.078 113.052H140.932V119.979C140.932 121.272 141.947 122.288 143.24 122.288H145.549C150.629 122.288 155.432 120.349 159.034 116.747L163.097 112.683C165.776 110.005 169.47 108.435 173.257 108.435C174.55 108.435 175.566 107.419 175.566 106.126V103.817H184.801C185.355 103.817 186.002 104.094 186.371 104.556C186.556 104.833 186.926 105.294 186.833 106.033C185.817 114.161 182.123 121.826 176.304 127.645C169.285 134.572 160.05 138.451 150.167 138.451C140.285 138.451 131.049 134.572 124.03 127.645C117.103 120.626 113.224 111.39 113.224 101.508C113.224 91.6255 117.103 82.3898 124.03 75.3706C131.049 68.4438 140.285 64.5648 150.167 64.5648C157.925 64.5648 165.222 66.9661 171.409 71.3069C171.132 72.0458 170.948 72.877 170.948 73.7082C171.04 77.5872 174.088 80.635 177.967 80.635ZM177.967 71.3993C179.26 71.3993 180.276 72.4152 180.276 73.7082C180.276 75.0012 179.26 76.0171 177.967 76.0171C176.674 76.0171 175.658 75.0012 175.658 73.7082C175.658 72.4152 176.674 71.3993 177.967 71.3993ZM170.948 103.909C166.699 104.371 162.82 106.31 159.772 109.358L155.709 113.422C153.03 116.1 149.336 117.67 145.549 117.67V85.3452C149.428 85.3452 153.03 86.823 155.709 89.5937L159.772 93.6574C162.82 96.7052 166.699 98.5524 170.948 99.1065V103.909Z" fill="#E46948" />
	<path d="M57.6448 235.94C57.7228 235.931 57.7662 235.896 57.7662 235.831V235.714H57.2591H57.038C57.0077 235.714 56.9903 235.714 56.973 235.719C56.9557 235.727 56.9427 235.745 56.9253 235.771L55.2349 238.748C55.2176 238.779 55.2046 238.809 55.1959 238.839C55.1829 238.87 55.1699 238.904 55.1569 238.935C55.1353 238.87 55.1092 238.809 55.0789 238.753L53.3452 235.771C53.3235 235.745 53.3148 235.727 53.2932 235.719C53.2758 235.714 53.2585 235.714 53.2282 235.714H53.0158H52.5V235.831C52.5 235.896 52.5433 235.931 52.6214 235.94H52.682C52.7124 235.94 52.7557 235.944 52.8164 235.944C52.8771 235.944 52.9421 235.953 53.0158 235.953V239.763C52.9421 239.763 52.8771 239.767 52.8164 239.767C52.7557 239.767 52.7124 239.776 52.682 239.776H52.6214C52.5433 239.78 52.5 239.815 52.5 239.884V240.005H53.0158H53.2845H53.809V239.884C53.809 239.815 53.7699 239.78 53.6876 239.776H53.6269C53.5966 239.776 53.5489 239.767 53.4882 239.767C53.4275 239.767 53.3539 239.763 53.2845 239.763V236.347C53.2845 236.291 53.2845 236.235 53.2758 236.174L55.0139 239.178C55.0442 239.234 55.0832 239.26 55.1353 239.26H55.1829C55.2349 239.26 55.2739 239.234 55.3043 239.178L56.9903 236.174C56.986 236.235 56.986 236.291 56.986 236.347V239.763C56.9123 239.763 56.8386 239.767 56.778 239.767C56.7173 239.767 56.6696 239.776 56.6393 239.776H56.5786C56.5006 239.78 56.4572 239.815 56.4572 239.884V240.005H56.986H57.2591H57.7662V239.884C57.7662 239.815 57.7228 239.78 57.6448 239.776H57.5928C57.5625 239.776 57.5104 239.767 57.4498 239.767C57.3891 239.767 57.3284 239.763 57.2591 239.763V235.953C57.3284 235.953 57.3891 235.944 57.4498 235.944C57.5104 235.944 57.5625 235.94 57.5928 235.94H57.6448ZM65.4119 239.745L65.2125 239.724L63.5741 235.71H63.2664L61.6194 239.724L61.4243 239.745C61.3463 239.75 61.3116 239.793 61.3116 239.867V240.005H61.5067H61.6324H61.7407H61.7841H62.3562V239.867C62.3562 239.784 62.3042 239.75 62.2132 239.745C62.2088 239.745 62.1958 239.737 62.1785 239.737C62.1611 239.737 62.1351 239.732 62.0918 239.732C62.0528 239.732 61.9964 239.732 61.9358 239.724L62.3605 238.675L62.3909 238.597H64.441L64.4713 238.675L64.8961 239.724C64.8354 239.732 64.7877 239.732 64.7444 239.732C64.701 239.732 64.6707 239.737 64.6534 239.737C64.636 239.737 64.623 239.745 64.6187 239.745C64.5277 239.75 64.48 239.784 64.48 239.867V240.005H65.0478H65.0911H65.2082H65.3295H65.5289V239.867C65.5289 239.793 65.4899 239.75 65.4119 239.745ZM63.3314 236.278C63.3444 236.243 63.3617 236.2 63.3748 236.157C63.3878 236.113 63.4051 236.074 63.4181 236.022C63.4268 236.074 63.4484 236.113 63.4571 236.157C63.4701 236.2 63.4874 236.235 63.5004 236.274L64.35 238.367H62.4862L63.3314 236.278ZM72.7802 239.776H72.7412H72.6631C72.6285 239.776 72.5851 239.767 72.5418 239.767L70.7951 237.942C70.7604 237.899 70.7301 237.869 70.691 237.843C70.6564 237.821 70.6174 237.804 70.5784 237.791C70.613 237.778 70.6434 237.76 70.6737 237.734C70.704 237.713 70.7387 237.682 70.7777 237.639L72.4204 235.944H72.5375C72.5721 235.944 72.5981 235.94 72.6155 235.94H72.6501C72.7325 235.931 72.7715 235.896 72.7715 235.831V235.71H72.3467H72.2947H71.5102V235.831C71.5102 235.896 71.5536 235.931 71.6316 235.94H71.7053C71.7486 235.94 71.8006 235.944 71.8743 235.944H72.0693L70.4787 237.578C70.457 237.6 70.431 237.626 70.4136 237.639C70.3963 237.652 70.3703 237.656 70.3443 237.669C70.3226 237.674 70.3053 237.687 70.275 237.687C70.2446 237.691 70.2056 237.691 70.1709 237.691H69.9152V235.944C69.9889 235.944 70.0539 235.94 70.1146 235.94C70.1753 235.94 70.2186 235.931 70.2489 235.931H70.3096C70.3876 235.927 70.4267 235.892 70.4267 235.823V235.71H69.9152H69.6075H69.096V235.823C69.096 235.892 69.1394 235.927 69.2174 235.931H69.2737C69.3041 235.931 69.3517 235.94 69.4124 235.94C69.4731 235.94 69.5338 235.944 69.6075 235.944V239.763C69.5338 239.763 69.4731 239.767 69.4124 239.767C69.3517 239.767 69.3041 239.776 69.2737 239.776H69.2174C69.1394 239.78 69.096 239.815 69.096 239.884V240.005H69.6075H69.9152H70.4267V239.884C70.4267 239.815 70.3876 239.78 70.3096 239.776H70.2489C70.2186 239.776 70.1753 239.767 70.1146 239.767C70.0539 239.767 69.9889 239.763 69.9152 239.763V237.934H70.1926C70.2446 237.934 70.2836 237.934 70.314 237.942C70.3443 237.947 70.3703 237.955 70.3963 237.964C70.418 237.977 70.444 237.99 70.4613 238.007C70.4787 238.025 70.496 238.038 70.522 238.064L72.1907 239.767C72.13 239.767 72.0563 239.776 71.9827 239.776H71.8093H71.7313C71.6489 239.78 71.6099 239.815 71.6099 239.884V240.005H72.4204H72.4464H72.5201H72.7715H72.9015V239.884C72.9015 239.815 72.8582 239.78 72.7802 239.776ZM77.0018 235.714H76.486V235.831C76.486 235.896 76.5293 235.931 76.6074 235.94H76.668C76.6984 235.94 76.7417 235.944 76.8024 235.944C76.8631 235.944 76.9281 235.953 77.0018 235.953V239.763C76.9281 239.763 76.8631 239.767 76.8024 239.767C76.7417 239.767 76.6984 239.776 76.668 239.776H76.6074C76.5293 239.78 76.4947 239.815 76.4947 239.884V240.005H77.0018H79.5763V239.745V239.113H79.4247C79.338 239.113 79.3033 239.169 79.2946 239.264C79.2946 239.277 79.2903 239.299 79.2903 239.342C79.2903 239.386 79.2903 239.446 79.286 239.537C79.2773 239.628 79.273 239.689 79.273 239.745H77.3138V237.955H79.0216V237.704H77.3138V235.97H79.273C79.286 236.235 79.2946 236.399 79.2946 236.456C79.3033 236.551 79.338 236.599 79.4247 236.599H79.5763V235.97V235.714H77.0018ZM90.4901 236.044C90.2387 235.823 89.853 235.714 89.3502 235.714H88.3056H87.7898V235.831C87.7898 235.896 87.8332 235.931 87.9112 235.94H87.9719C88.0022 235.94 88.0456 235.944 88.1062 235.944C88.1669 235.944 88.2363 235.953 88.3056 235.953V239.763C88.2363 239.763 88.1669 239.767 88.1062 239.767C88.0456 239.767 88.0022 239.776 87.9719 239.776H87.9112C87.8332 239.78 87.7898 239.815 87.7898 239.884V240.005H88.3056H88.6177H89.1248V239.884C89.1248 239.815 89.0858 239.78 89.0034 239.776H88.9514C88.9211 239.776 88.8734 239.767 88.8127 239.767C88.7521 239.767 88.6914 239.763 88.6177 239.763V238.276H89.3502C89.5886 238.276 89.801 238.237 89.9873 238.176C90.178 238.111 90.3341 238.025 90.4684 237.912C90.6028 237.795 90.7025 237.661 90.7718 237.504C90.8455 237.348 90.8759 237.175 90.8759 236.989C90.8759 236.581 90.7458 236.261 90.4901 236.044ZM90.4814 237.4C90.4251 237.53 90.3471 237.639 90.2431 237.73C90.139 237.821 90.0133 237.895 89.8616 237.947C89.7099 238.003 89.5409 238.025 89.3502 238.025H88.6177V235.957H89.3502C89.7533 235.957 90.0567 236.048 90.2604 236.226C90.4598 236.399 90.5638 236.655 90.5638 236.984C90.5638 237.136 90.5335 237.275 90.4814 237.4ZM97.8888 239.776H97.8454H97.7674C97.7327 239.776 97.6937 239.767 97.659 239.767L96.3717 238.146C96.3371 238.098 96.2851 238.055 96.2374 238.025C96.4281 238.007 96.5971 237.964 96.7488 237.899C96.9005 237.834 97.0219 237.747 97.1303 237.643C97.2343 237.539 97.3166 237.418 97.373 237.288C97.4293 237.153 97.4597 237.002 97.4597 236.837C97.4597 236.469 97.3383 236.196 97.0956 236C96.8529 235.81 96.4801 235.714 95.9817 235.714H94.9414H94.43V235.831C94.43 235.896 94.4647 235.931 94.547 235.94H94.6077C94.638 235.94 94.677 235.944 94.7377 235.944C94.7984 235.944 94.8678 235.953 94.9414 235.953V239.763C94.8678 239.763 94.7984 239.767 94.7377 239.767C94.677 239.767 94.638 239.776 94.6077 239.776H94.547C94.4647 239.78 94.4257 239.815 94.4257 239.884V240.005H94.9414H95.2492H95.7606V239.884C95.7606 239.815 95.7173 239.78 95.6393 239.776H95.5786C95.5482 239.776 95.5049 239.767 95.4442 239.767C95.3835 239.767 95.3229 239.763 95.2492 239.763V238.064H95.7606C95.843 238.064 95.9036 238.068 95.9427 238.085C95.9773 238.107 96.012 238.142 96.051 238.185L97.4293 239.927C97.451 239.958 97.4683 239.975 97.4943 239.988C97.5203 239.997 97.5507 240.005 97.581 240.005H97.6114H97.8454H98.0058V239.884C98.0058 239.815 97.9668 239.78 97.8888 239.776ZM95.9427 237.834H95.2492V235.957H95.9817C96.3674 235.957 96.6578 236.035 96.8572 236.183C97.0566 236.326 97.1563 236.56 97.1563 236.863C97.1563 237.015 97.1303 237.14 97.0739 237.262C97.0219 237.383 96.9352 237.478 96.8312 237.565C96.7315 237.652 96.6015 237.721 96.4498 237.765C96.2981 237.808 96.129 237.834 95.9427 237.834ZM105.443 237.856C105.443 237.53 105.387 237.227 105.292 236.958C105.196 236.69 105.053 236.46 104.871 236.265C104.689 236.074 104.477 235.922 104.23 235.818C103.983 235.714 103.697 235.658 103.393 235.658C103.09 235.658 102.817 235.714 102.565 235.818C102.318 235.922 102.102 236.074 101.92 236.265C101.738 236.46 101.595 236.69 101.499 236.958C101.404 237.227 101.348 237.53 101.348 237.856C101.348 238.189 101.404 238.493 101.499 238.761C101.595 239.026 101.738 239.26 101.92 239.451C102.102 239.646 102.318 239.793 102.565 239.897C102.817 239.997 103.09 240.053 103.393 240.053C103.697 240.053 103.983 239.997 104.23 239.897C104.477 239.793 104.689 239.646 104.871 239.451C105.053 239.26 105.196 239.026 105.292 238.761C105.387 238.493 105.443 238.189 105.443 237.856ZM105.114 237.856C105.114 238.159 105.079 238.428 104.993 238.662C104.91 238.9 104.793 239.108 104.642 239.269C104.49 239.433 104.308 239.568 104.095 239.654C103.883 239.737 103.653 239.78 103.393 239.78C103.138 239.78 102.908 239.737 102.695 239.654C102.483 239.568 102.301 239.433 102.149 239.269C101.998 239.108 101.876 238.9 101.79 238.662C101.707 238.428 101.668 238.159 101.668 237.856C101.668 237.561 101.707 237.288 101.79 237.049C101.876 236.811 101.998 236.607 102.149 236.443C102.301 236.278 102.483 236.144 102.695 236.061C102.908 235.974 103.138 235.927 103.393 235.927C103.653 235.927 103.883 235.974 104.095 236.061C104.308 236.144 104.49 236.278 104.642 236.443C104.793 236.607 104.91 236.811 104.993 237.049C105.079 237.288 105.114 237.561 105.114 237.856ZM112.118 235.714H111.967H109.544H109.028V235.831C109.028 235.896 109.071 235.931 109.149 235.94H109.21C109.24 235.94 109.284 235.944 109.344 235.944C109.405 235.944 109.474 235.953 109.544 235.953V239.763C109.474 239.763 109.405 239.767 109.344 239.767C109.284 239.767 109.24 239.776 109.21 239.776H109.149C109.071 239.78 109.028 239.815 109.028 239.884V240.005H109.544H109.856H110.363V239.884C110.363 239.815 110.328 239.78 110.25 239.776H110.189C110.159 239.776 110.116 239.767 110.055 239.767C109.994 239.767 109.929 239.763 109.856 239.763V238.033H111.455V237.773H109.856V235.97H111.85C111.863 236.261 111.876 236.425 111.876 236.456C111.88 236.551 111.923 236.599 112.01 236.599H112.153V235.714H112.118ZM116.188 235.714H115.672V235.831C115.672 235.896 115.716 235.931 115.794 235.94H115.854C115.885 235.94 115.928 235.944 115.989 235.944C116.049 235.944 116.119 235.953 116.188 235.953V239.763C116.119 239.763 116.049 239.767 115.989 239.767C115.928 239.767 115.885 239.776 115.854 239.776H115.794C115.716 239.78 115.681 239.815 115.681 239.884V240.005H116.188H118.763V239.745V239.113H118.611C118.524 239.113 118.49 239.169 118.485 239.264C118.485 239.277 118.477 239.299 118.477 239.342C118.477 239.386 118.477 239.446 118.472 239.537C118.464 239.628 118.459 239.689 118.459 239.745H116.5V237.955H118.212V237.704H116.5V235.97H118.459C118.472 236.235 118.485 236.399 118.485 236.456C118.49 236.551 118.524 236.599 118.611 236.599H118.763V235.97V235.714H116.188ZM124.965 238.311C124.904 238.198 124.818 238.085 124.714 238.007C124.614 237.929 124.501 237.864 124.376 237.808C124.25 237.752 124.107 237.704 123.977 237.661C123.843 237.622 123.708 237.57 123.582 237.53C123.452 237.478 123.34 237.426 123.236 237.357C123.132 237.292 123.054 237.214 122.993 237.114C122.932 237.019 122.893 236.898 122.893 236.75C122.893 236.642 122.919 236.538 122.963 236.438C123.006 236.334 123.067 236.248 123.145 236.17C123.223 236.092 123.318 236.031 123.439 235.987C123.561 235.944 123.695 235.922 123.856 235.922C124.146 235.922 124.41 235.97 124.653 236.074C124.675 236.417 124.683 236.612 124.683 236.642C124.692 236.742 124.727 236.794 124.813 236.794H124.956V235.914C124.575 235.749 124.211 235.667 123.856 235.667C123.652 235.667 123.478 235.697 123.318 235.758C123.162 235.818 123.036 235.896 122.932 236C122.828 236.105 122.742 236.217 122.69 236.352C122.633 236.486 122.612 236.625 122.612 236.772C122.612 236.954 122.642 237.11 122.703 237.231C122.763 237.353 122.846 237.448 122.95 237.535C123.054 237.622 123.162 237.682 123.288 237.734C123.418 237.791 123.556 237.838 123.691 237.882C123.825 237.925 123.951 237.964 124.085 238.007C124.211 238.051 124.328 238.111 124.432 238.176C124.532 238.246 124.614 238.324 124.675 238.419C124.735 238.519 124.766 238.644 124.766 238.796C124.766 238.935 124.74 239.069 124.692 239.191C124.644 239.312 124.575 239.416 124.484 239.507C124.393 239.598 124.28 239.672 124.146 239.719C124.012 239.776 123.86 239.793 123.691 239.793C123.348 239.793 123.067 239.737 122.833 239.628C122.828 239.542 122.828 239.451 122.824 239.355C122.815 239.26 122.815 239.178 122.811 239.113C122.802 239.048 122.802 239.008 122.802 239.004C122.798 238.904 122.755 238.857 122.672 238.857H122.525V239.659V239.737V239.815C122.893 239.975 123.279 240.053 123.678 240.053C123.895 240.053 124.09 240.018 124.259 239.949C124.432 239.884 124.575 239.784 124.692 239.672C124.805 239.555 124.904 239.416 124.965 239.26C125.026 239.1 125.056 238.93 125.056 238.748C125.056 238.571 125.026 238.428 124.965 238.311ZM131.115 238.311C131.055 238.198 130.972 238.085 130.868 238.007C130.764 237.929 130.656 237.864 130.53 237.808C130.4 237.752 130.262 237.704 130.127 237.661C129.993 237.622 129.863 237.57 129.733 237.53C129.607 237.478 129.49 237.426 129.386 237.357C129.286 237.292 129.204 237.214 129.143 237.114C129.083 237.019 129.048 236.898 129.048 236.75C129.048 236.642 129.074 236.538 129.113 236.438C129.156 236.334 129.217 236.248 129.295 236.17C129.377 236.092 129.473 236.031 129.594 235.987C129.715 235.944 129.85 235.922 130.006 235.922C130.296 235.922 130.565 235.97 130.808 236.074C130.825 236.417 130.838 236.612 130.838 236.642C130.842 236.742 130.881 236.794 130.964 236.794H131.111V235.914C130.73 235.749 130.366 235.667 130.006 235.667C129.807 235.667 129.629 235.697 129.473 235.758C129.317 235.818 129.187 235.896 129.083 236C128.983 236.105 128.896 236.217 128.84 236.352C128.788 236.486 128.762 236.625 128.762 236.772C128.762 236.954 128.792 237.11 128.853 237.231C128.914 237.353 129 237.448 129.104 237.535C129.204 237.622 129.317 237.682 129.442 237.734C129.568 237.791 129.711 237.838 129.841 237.882C129.976 237.925 130.106 237.964 130.236 238.007C130.366 238.051 130.478 238.111 130.582 238.176C130.686 238.246 130.764 238.324 130.825 238.419C130.886 238.519 130.916 238.644 130.916 238.796C130.916 238.935 130.894 239.069 130.842 239.191C130.795 239.312 130.73 239.416 130.639 239.507C130.548 239.598 130.431 239.672 130.296 239.719C130.166 239.776 130.015 239.793 129.841 239.793C129.503 239.793 129.217 239.737 128.987 239.628C128.983 239.542 128.983 239.451 128.974 239.355C128.97 239.26 128.97 239.178 128.961 239.113C128.957 239.048 128.957 239.008 128.957 239.004C128.953 238.904 128.909 238.857 128.823 238.857H128.68V239.659V239.737V239.815C129.048 239.975 129.429 240.053 129.833 240.053C130.049 240.053 130.244 240.018 130.413 239.949C130.582 239.884 130.73 239.784 130.842 239.672C130.959 239.555 131.055 239.416 131.115 239.26C131.176 239.1 131.206 238.93 131.206 238.748C131.206 238.571 131.176 238.428 131.115 238.311ZM136.009 235.94C136.087 235.931 136.122 235.896 136.122 235.831V235.71H135.614H135.302H134.787V235.831C134.787 235.896 134.83 235.931 134.908 235.94H134.969C134.999 235.94 135.042 235.944 135.103 235.944C135.164 235.944 135.233 235.953 135.302 235.953V239.763C135.233 239.763 135.164 239.767 135.103 239.767C135.042 239.767 134.999 239.776 134.969 239.776H134.908C134.83 239.78 134.787 239.815 134.787 239.884V240.005H135.302H135.614H136.122V239.884C136.122 239.815 136.087 239.78 136.009 239.776H135.948C135.918 239.776 135.875 239.767 135.814 239.767C135.753 239.767 135.688 239.763 135.614 239.763V235.953C135.688 235.953 135.753 235.944 135.814 235.944C135.875 235.944 135.918 235.94 135.948 235.94H136.009ZM143.759 237.856C143.759 237.53 143.702 237.227 143.607 236.958C143.507 236.69 143.369 236.46 143.186 236.265C143.004 236.074 142.792 235.922 142.545 235.818C142.294 235.714 142.008 235.658 141.704 235.658C141.401 235.658 141.128 235.714 140.881 235.818C140.634 235.922 140.413 236.074 140.23 236.265C140.048 236.46 139.91 236.69 139.814 236.958C139.715 237.227 139.663 237.53 139.663 237.856C139.663 238.189 139.715 238.493 139.814 238.761C139.91 239.026 140.048 239.26 140.23 239.451C140.413 239.646 140.634 239.793 140.881 239.897C141.128 239.997 141.401 240.053 141.704 240.053C142.008 240.053 142.294 239.997 142.545 239.897C142.792 239.793 143.004 239.646 143.186 239.451C143.369 239.26 143.507 239.026 143.607 238.761C143.702 238.493 143.759 238.189 143.759 237.856ZM143.429 237.856C143.429 238.159 143.395 238.428 143.308 238.662C143.221 238.9 143.108 239.108 142.957 239.269C142.805 239.433 142.623 239.568 142.411 239.654C142.198 239.737 141.969 239.78 141.704 239.78C141.453 239.78 141.219 239.737 141.006 239.654C140.794 239.568 140.612 239.433 140.46 239.269C140.309 239.108 140.187 238.9 140.105 238.662C140.018 238.428 139.983 238.159 139.983 237.856C139.983 237.561 140.018 237.288 140.105 237.049C140.187 236.811 140.309 236.607 140.46 236.443C140.612 236.278 140.794 236.144 141.006 236.061C141.219 235.974 141.453 235.927 141.704 235.927C141.969 235.927 142.198 235.974 142.411 236.061C142.623 236.144 142.805 236.278 142.957 236.443C143.108 236.607 143.221 236.811 143.308 237.049C143.395 237.288 143.429 237.561 143.429 237.856ZM151.049 235.714H150.776H150.251V235.831C150.251 235.896 150.29 235.931 150.373 235.94H150.433C150.464 235.94 150.511 235.944 150.572 235.944C150.633 235.944 150.706 235.953 150.776 235.953V239.312C150.776 239.368 150.776 239.429 150.785 239.49L148.006 235.771C147.985 235.745 147.976 235.727 147.954 235.719C147.937 235.714 147.92 235.71 147.889 235.71H147.737H147.222V235.831C147.222 235.896 147.265 235.931 147.343 235.94H147.404C147.434 235.94 147.477 235.944 147.538 235.944C147.599 235.944 147.664 235.953 147.737 235.953V239.763C147.664 239.763 147.599 239.767 147.538 239.767C147.477 239.767 147.434 239.776 147.404 239.776H147.343C147.265 239.78 147.222 239.815 147.222 239.884V240.005H147.737H148.006H148.531V239.884C148.531 239.815 148.492 239.78 148.409 239.776H148.349C148.318 239.776 148.266 239.767 148.206 239.767C148.145 239.767 148.076 239.763 148.006 239.763V236.395C148.006 236.339 148.006 236.278 147.998 236.217L150.789 239.945C150.819 239.988 150.85 240.005 150.897 240.005H151.049V235.953C151.123 235.953 151.183 235.944 151.244 235.944C151.305 235.944 151.352 235.94 151.383 235.94H151.439C151.517 235.931 151.56 235.896 151.56 235.831V235.714H151.049ZM159.072 239.745L158.872 239.724L157.234 235.71H156.926L155.279 239.724L155.084 239.745C155.006 239.75 154.971 239.793 154.971 239.867V240.005H155.166H155.292H155.401H155.444H156.016V239.867C156.016 239.784 155.964 239.75 155.873 239.745C155.869 239.745 155.856 239.737 155.838 239.737C155.821 239.737 155.795 239.732 155.752 239.732C155.713 239.732 155.656 239.732 155.596 239.724L156.02 238.675L156.051 238.597H158.101L158.131 238.675L158.556 239.724C158.495 239.732 158.448 239.732 158.404 239.732C158.361 239.732 158.331 239.737 158.313 239.737C158.296 239.737 158.283 239.745 158.279 239.745C158.187 239.75 158.14 239.784 158.14 239.867V240.005H158.708H158.751H158.868H158.989H159.189V239.867C159.189 239.793 159.15 239.75 159.072 239.745ZM156.991 236.278C157.004 236.243 157.022 236.2 157.035 236.157C157.048 236.113 157.065 236.074 157.078 236.022C157.087 236.074 157.108 236.113 157.117 236.157C157.13 236.2 157.147 236.235 157.16 236.274L158.01 238.367H156.146L156.991 236.278ZM165.517 239.204C165.43 239.204 165.395 239.251 165.391 239.351C165.391 239.355 165.391 239.381 165.382 239.403C165.378 239.429 165.378 239.472 165.369 239.524C165.365 239.581 165.361 239.654 165.352 239.737H163.579V235.953C163.653 235.953 163.714 235.944 163.774 235.944C163.835 235.944 163.883 235.94 163.913 235.94H163.969C164.047 235.931 164.091 235.896 164.091 235.831V235.714H163.579H163.272H162.756V235.831C162.756 235.896 162.799 235.931 162.877 235.94H162.938C162.968 235.94 163.012 235.944 163.072 235.944C163.133 235.944 163.198 235.953 163.272 235.953V239.763C163.198 239.763 163.133 239.767 163.072 239.767C163.012 239.767 162.968 239.776 162.938 239.776H162.877C162.799 239.78 162.756 239.815 162.756 239.884V240.005H163.272H165.56H165.612H165.668V239.888V239.646V239.204H165.547H165.517ZM177.167 239.308C177.154 239.295 177.137 239.282 177.12 239.282C177.107 239.282 177.102 239.282 177.089 239.29C177.081 239.295 177.072 239.308 177.059 239.312C176.972 239.39 176.881 239.459 176.799 239.52C176.712 239.581 176.621 239.624 176.517 239.663C176.413 239.706 176.305 239.737 176.183 239.754C176.062 239.776 175.928 239.784 175.776 239.784C175.533 239.784 175.299 239.745 175.091 239.654C174.879 239.568 174.705 239.442 174.554 239.277C174.402 239.113 174.272 238.904 174.19 238.67C174.103 238.432 174.06 238.159 174.06 237.856C174.06 237.561 174.103 237.292 174.19 237.054C174.281 236.82 174.402 236.62 174.558 236.447C174.714 236.287 174.905 236.157 175.122 236.066C175.343 235.974 175.577 235.931 175.837 235.931C176.227 235.931 176.587 235.992 176.899 236.135C176.92 236.521 176.938 236.746 176.938 236.794C176.942 236.893 176.981 236.941 177.063 236.941H177.211V235.97C176.699 235.762 176.24 235.667 175.837 235.667C175.529 235.667 175.252 235.714 174.987 235.823C174.736 235.931 174.502 236.079 174.32 236.274C174.133 236.469 173.995 236.698 173.891 236.963C173.787 237.231 173.739 237.53 173.739 237.856C173.739 238.189 173.795 238.488 173.891 238.761C173.986 239.034 174.129 239.26 174.302 239.451C174.48 239.646 174.692 239.793 174.94 239.897C175.191 239.997 175.455 240.053 175.754 240.053C175.928 240.053 176.092 240.04 176.244 240.01C176.392 239.979 176.53 239.936 176.656 239.884C176.777 239.828 176.894 239.763 176.998 239.689C177.102 239.611 177.198 239.533 177.289 239.433L177.167 239.308ZM184.778 237.856C184.778 237.53 184.722 237.227 184.627 236.958C184.527 236.69 184.388 236.46 184.206 236.265C184.024 236.074 183.812 235.922 183.565 235.818C183.313 235.714 183.027 235.658 182.724 235.658C182.421 235.658 182.147 235.714 181.9 235.818C181.653 235.922 181.432 236.074 181.25 236.265C181.068 236.46 180.93 236.69 180.834 236.958C180.734 237.227 180.682 237.53 180.682 237.856C180.682 238.189 180.734 238.493 180.834 238.761C180.93 239.026 181.068 239.26 181.25 239.451C181.432 239.646 181.653 239.793 181.9 239.897C182.147 239.997 182.421 240.053 182.724 240.053C183.027 240.053 183.313 239.997 183.565 239.897C183.812 239.793 184.024 239.646 184.206 239.451C184.388 239.26 184.527 239.026 184.627 238.761C184.722 238.493 184.778 238.189 184.778 237.856ZM184.449 237.856C184.449 238.159 184.414 238.428 184.328 238.662C184.241 238.9 184.128 239.108 183.977 239.269C183.825 239.433 183.643 239.568 183.43 239.654C183.218 239.737 182.988 239.78 182.724 239.78C182.473 239.78 182.238 239.737 182.026 239.654C181.814 239.568 181.632 239.433 181.48 239.269C181.328 239.108 181.207 238.9 181.125 238.662C181.038 238.428 181.003 238.159 181.003 237.856C181.003 237.561 181.038 237.288 181.125 237.049C181.207 236.811 181.328 236.607 181.48 236.443C181.632 236.278 181.814 236.144 182.026 236.061C182.238 235.974 182.473 235.927 182.724 235.927C182.988 235.927 183.218 235.974 183.43 236.061C183.643 236.144 183.825 236.278 183.977 236.443C184.128 236.607 184.241 236.811 184.328 237.049C184.414 237.288 184.449 237.561 184.449 237.856ZM192.069 235.714H191.796H191.271V235.831C191.271 235.896 191.31 235.931 191.393 235.94H191.453C191.484 235.94 191.531 235.944 191.592 235.944C191.653 235.944 191.726 235.953 191.796 235.953V239.312C191.796 239.368 191.796 239.429 191.804 239.49L189.026 235.771C189.004 235.745 188.996 235.727 188.974 235.719C188.957 235.714 188.939 235.71 188.909 235.71H188.757H188.242V235.831C188.242 235.896 188.285 235.931 188.363 235.94H188.424C188.454 235.94 188.497 235.944 188.558 235.944C188.619 235.944 188.684 235.953 188.757 235.953V239.763C188.684 239.763 188.619 239.767 188.558 239.767C188.497 239.767 188.454 239.776 188.424 239.776H188.363C188.285 239.78 188.242 239.815 188.242 239.884V240.005H188.757H189.026H189.55V239.884C189.55 239.815 189.511 239.78 189.429 239.776H189.368C189.338 239.776 189.286 239.767 189.225 239.767C189.165 239.767 189.095 239.763 189.026 239.763V236.395C189.026 236.339 189.026 236.278 189.017 236.217L191.809 239.945C191.839 239.988 191.869 240.005 191.917 240.005H192.069V235.953C192.142 235.953 192.203 235.944 192.264 235.944C192.324 235.944 192.372 235.94 192.402 235.94H192.459C192.537 235.931 192.58 235.896 192.58 235.831V235.714H192.069ZM199.892 235.714H199.619H199.09V235.831C199.09 235.896 199.134 235.931 199.212 235.94H199.272C199.303 235.94 199.35 235.944 199.411 235.944C199.472 235.944 199.545 235.953 199.619 235.953V239.312C199.619 239.368 199.619 239.429 199.623 239.49L196.845 235.771C196.828 235.745 196.815 235.727 196.797 235.719C196.78 235.714 196.763 235.71 196.732 235.71H196.581H196.065V235.831C196.065 235.896 196.104 235.931 196.186 235.94H196.247C196.277 235.94 196.316 235.944 196.377 235.944C196.438 235.944 196.507 235.953 196.581 235.953V239.763C196.507 239.763 196.438 239.767 196.377 239.767C196.316 239.767 196.277 239.776 196.247 239.776H196.186C196.104 239.78 196.065 239.815 196.065 239.884V240.005H196.581H196.845H197.374V239.884C197.374 239.815 197.331 239.78 197.253 239.776H197.192C197.161 239.776 197.105 239.767 197.044 239.767C196.984 239.767 196.919 239.763 196.845 239.763V236.395C196.845 236.339 196.845 236.278 196.841 236.217L199.632 239.945C199.662 239.988 199.693 240.005 199.74 240.005H199.892V235.953C199.966 235.953 200.026 235.944 200.087 235.944C200.148 235.944 200.195 235.94 200.226 235.94H200.282C200.36 235.931 200.404 235.896 200.404 235.831V235.714H199.892ZM204.4 235.714H203.884V235.831C203.884 235.896 203.927 235.931 204.005 235.94H204.066C204.096 235.94 204.14 235.944 204.2 235.944C204.261 235.944 204.326 235.953 204.4 235.953V239.763C204.326 239.763 204.261 239.767 204.2 239.767C204.14 239.767 204.096 239.776 204.066 239.776H204.005C203.927 239.78 203.893 239.815 203.893 239.884V240.005H204.4H206.974V239.745V239.113H206.823C206.736 239.113 206.701 239.169 206.693 239.264C206.693 239.277 206.688 239.299 206.688 239.342C206.688 239.386 206.688 239.446 206.684 239.537C206.675 239.628 206.671 239.689 206.671 239.745H204.712V237.955H206.42V237.704H204.712V235.97H206.671C206.684 236.235 206.693 236.399 206.693 236.456C206.701 236.551 206.736 236.599 206.823 236.599H206.974V235.97V235.714H204.4ZM213.996 239.308C213.983 239.295 213.966 239.282 213.944 239.282C213.935 239.282 213.927 239.282 213.914 239.29C213.909 239.295 213.896 239.308 213.883 239.312C213.801 239.39 213.71 239.459 213.623 239.52C213.541 239.581 213.45 239.624 213.346 239.663C213.242 239.706 213.133 239.737 213.012 239.754C212.891 239.776 212.756 239.784 212.605 239.784C212.362 239.784 212.123 239.745 211.92 239.654C211.707 239.568 211.53 239.442 211.378 239.277C211.226 239.113 211.101 238.904 211.014 238.67C210.932 238.432 210.888 238.159 210.888 237.856C210.888 237.561 210.932 237.292 211.014 237.054C211.105 236.82 211.226 236.62 211.387 236.447C211.543 236.287 211.729 236.157 211.95 236.066C212.167 235.974 212.405 235.931 212.665 235.931C213.055 235.931 213.411 235.992 213.727 236.135C213.744 236.521 213.762 236.746 213.762 236.794C213.771 236.893 213.805 236.941 213.892 236.941H214.035V235.97C213.528 235.762 213.064 235.667 212.665 235.667C212.358 235.667 212.076 235.714 211.816 235.823C211.56 235.931 211.33 236.079 211.148 236.274C210.962 236.469 210.819 236.698 210.719 236.963C210.615 237.231 210.567 237.53 210.567 237.856C210.567 238.189 210.619 238.488 210.719 238.761C210.815 239.034 210.953 239.26 211.131 239.451C211.304 239.646 211.517 239.793 211.768 239.897C212.015 239.997 212.284 240.053 212.579 240.053C212.756 240.053 212.921 240.04 213.073 240.01C213.216 239.979 213.359 239.936 213.484 239.884C213.606 239.828 213.723 239.763 213.823 239.689C213.927 239.611 214.026 239.533 214.117 239.433L213.996 239.308ZM221.117 235.714H221.035H217.871H217.78H217.736V236.599H217.888C217.975 236.599 218.009 236.551 218.018 236.456C218.018 236.412 218.031 236.256 218.04 235.974H219.297V239.763C219.223 239.763 219.162 239.767 219.102 239.767C219.041 239.767 218.993 239.776 218.963 239.776H218.911C218.829 239.78 218.79 239.815 218.79 239.884V240.005H219.297H219.609H220.125V239.884C220.125 239.815 220.081 239.78 220.003 239.776H219.943C219.912 239.776 219.869 239.767 219.808 239.767C219.747 239.767 219.678 239.763 219.609 239.763V235.974H220.857C220.874 236.287 220.883 236.443 220.883 236.456C220.887 236.551 220.931 236.599 221.013 236.599H221.16V235.714H221.117ZM225.894 235.94C225.972 235.931 226.011 235.896 226.011 235.831V235.71H225.499H225.191H224.676V235.831C224.676 235.896 224.715 235.931 224.797 235.94H224.858C224.888 235.94 224.927 235.944 224.988 235.944C225.048 235.944 225.118 235.953 225.191 235.953V239.763C225.118 239.763 225.048 239.767 224.988 239.767C224.927 239.767 224.888 239.776 224.858 239.776H224.797C224.715 239.78 224.676 239.815 224.676 239.884V240.005H225.191H225.499H226.011V239.884C226.011 239.815 225.972 239.78 225.894 239.776H225.833C225.803 239.776 225.759 239.767 225.698 239.767C225.638 239.767 225.573 239.763 225.499 239.763V235.953C225.573 235.953 225.638 235.944 225.698 235.944C225.759 235.944 225.803 235.94 225.833 235.94H225.894ZM233.643 237.856C233.643 237.53 233.587 237.227 233.492 236.958C233.392 236.69 233.253 236.46 233.071 236.265C232.889 236.074 232.677 235.922 232.43 235.818C232.178 235.714 231.897 235.658 231.593 235.658C231.29 235.658 231.017 235.714 230.765 235.818C230.518 235.922 230.297 236.074 230.115 236.265C229.933 236.46 229.794 236.69 229.699 236.958C229.599 237.227 229.547 237.53 229.547 237.856C229.547 238.189 229.599 238.493 229.699 238.761C229.794 239.026 229.933 239.26 230.115 239.451C230.297 239.646 230.518 239.793 230.765 239.897C231.017 239.997 231.29 240.053 231.593 240.053C231.897 240.053 232.178 239.997 232.43 239.897C232.677 239.793 232.889 239.646 233.071 239.451C233.253 239.26 233.392 239.026 233.492 238.761C233.587 238.493 233.643 238.189 233.643 237.856ZM233.314 237.856C233.314 238.159 233.279 238.428 233.192 238.662C233.11 238.9 232.993 239.108 232.841 239.269C232.69 239.433 232.508 239.568 232.295 239.654C232.083 239.737 231.853 239.78 231.593 239.78C231.337 239.78 231.108 239.737 230.895 239.654C230.683 239.568 230.501 239.433 230.349 239.269C230.197 239.108 230.076 238.9 229.989 238.662C229.903 238.428 229.868 238.159 229.868 237.856C229.868 237.561 229.903 237.288 229.989 237.049C230.076 236.811 230.197 236.607 230.349 236.443C230.501 236.278 230.683 236.144 230.895 236.061C231.108 235.974 231.337 235.927 231.593 235.927C231.853 235.927 232.083 235.974 232.295 236.061C232.508 236.144 232.69 236.278 232.841 236.443C232.993 236.607 233.11 236.811 233.192 237.049C233.279 237.288 233.314 237.561 233.314 237.856ZM240.938 235.714H240.665H240.136V235.831C240.136 235.896 240.179 235.931 240.257 235.94H240.318C240.348 235.94 240.396 235.944 240.457 235.944C240.517 235.944 240.591 235.953 240.665 235.953V239.312C240.665 239.368 240.665 239.429 240.669 239.49L237.891 235.771C237.874 235.745 237.861 235.727 237.843 235.719C237.822 235.714 237.804 235.71 237.774 235.71H237.622H237.106V235.831C237.106 235.896 237.15 235.931 237.228 235.94H237.288C237.319 235.94 237.362 235.944 237.423 235.944C237.483 235.944 237.548 235.953 237.622 235.953V239.763C237.548 239.763 237.483 239.767 237.423 239.767C237.362 239.767 237.319 239.776 237.288 239.776H237.228C237.15 239.78 237.106 239.815 237.106 239.884V240.005H237.622H237.891H238.42V239.884C238.42 239.815 238.376 239.78 238.298 239.776H238.238C238.207 239.776 238.151 239.767 238.09 239.767C238.03 239.767 237.965 239.763 237.891 239.763V236.395C237.891 236.339 237.891 236.278 237.882 236.217L240.673 239.945C240.704 239.988 240.734 240.005 240.786 240.005H240.938V235.953C241.007 235.953 241.068 235.944 241.129 235.944C241.189 235.944 241.241 235.94 241.272 235.94H241.324C241.402 235.931 241.445 235.896 241.445 235.831V235.714H240.938ZM247.409 238.311C247.348 238.198 247.266 238.085 247.162 238.007C247.058 237.929 246.95 237.864 246.824 237.808C246.694 237.752 246.555 237.704 246.421 237.661C246.286 237.622 246.156 237.57 246.026 237.53C245.901 237.478 245.784 237.426 245.68 237.357C245.58 237.292 245.498 237.214 245.437 237.114C245.376 237.019 245.342 236.898 245.342 236.75C245.342 236.642 245.368 236.538 245.407 236.438C245.45 236.334 245.511 236.248 245.589 236.17C245.671 236.092 245.766 236.031 245.888 235.987C246.009 235.944 246.143 235.922 246.299 235.922C246.59 235.922 246.859 235.97 247.101 236.074C247.119 236.417 247.132 236.612 247.132 236.642C247.136 236.742 247.175 236.794 247.257 236.794H247.405V235.914C247.023 235.749 246.659 235.667 246.299 235.667C246.1 235.667 245.922 235.697 245.766 235.758C245.61 235.818 245.48 235.896 245.376 236C245.277 236.105 245.19 236.217 245.133 236.352C245.081 236.486 245.055 236.625 245.055 236.772C245.055 236.954 245.086 237.11 245.146 237.231C245.207 237.353 245.294 237.448 245.398 237.535C245.498 237.622 245.61 237.682 245.736 237.734C245.862 237.791 246.005 237.838 246.135 237.882C246.269 237.925 246.399 237.964 246.529 238.007C246.659 238.051 246.772 238.111 246.876 238.176C246.98 238.246 247.058 238.324 247.119 238.419C247.179 238.519 247.21 238.644 247.21 238.796C247.21 238.935 247.188 239.069 247.136 239.191C247.088 239.312 247.023 239.416 246.932 239.507C246.841 239.598 246.724 239.672 246.59 239.719C246.46 239.776 246.308 239.793 246.135 239.793C245.797 239.793 245.511 239.737 245.281 239.628C245.277 239.542 245.277 239.451 245.268 239.355C245.264 239.26 245.264 239.178 245.255 239.113C245.251 239.048 245.251 239.008 245.251 239.004C245.246 238.904 245.203 238.857 245.116 238.857H244.973V239.659V239.737V239.815C245.342 239.975 245.723 240.053 246.126 240.053C246.343 240.053 246.538 240.018 246.707 239.949C246.876 239.884 247.023 239.784 247.136 239.672C247.253 239.555 247.348 239.416 247.409 239.26C247.47 239.1 247.5 238.93 247.5 238.748C247.5 238.571 247.47 238.428 247.409 238.311Z" fill="white" />
</svg>
