<svg width="84" height="85" viewBox="0 0 84 85" fill="none" xmlns="http://www.w3.org/2000/svg">
	<path d="M69.9669 21.635C73.7535 21.635 76.8937 18.4949 76.8937 14.7082C76.8937 10.9216 73.7535 7.78141 69.9669 7.78141C68.6739 7.78141 67.4732 8.15084 66.4573 8.70498C59.4381 3.71768 51.0336 0.94696 42.1673 0.94696C31.0844 0.94696 20.648 5.28776 12.7977 13.1381C4.94727 20.9885 0.606476 31.4249 0.606476 42.5078C0.606476 53.5907 4.94727 64.0271 12.7977 71.8774C20.648 79.7278 31.0844 84.0686 42.1673 84.0686C53.2502 84.0686 63.6866 79.7278 71.5369 71.8774C78.0943 65.3201 82.2504 56.7308 83.3587 47.5874C83.5434 45.7403 82.9893 43.8931 81.7886 42.5078C80.4956 41.0301 78.6485 40.2912 76.8013 40.2912H67.5656V37.8899C67.5656 36.5969 66.5497 35.581 65.2566 35.581C61.3776 35.581 57.7757 34.1033 55.0973 31.3325L51.0336 27.2688C47.4317 23.6669 42.6291 21.7274 37.5494 21.7274H35.2405C33.9475 21.7274 32.9316 22.7433 32.9316 24.0363V30.9631H19.078C17.785 30.9631 16.769 31.979 16.769 33.272C16.769 34.5651 17.785 35.581 19.078 35.581H32.9316V49.4346H19.078C17.785 49.4346 16.769 50.4505 16.769 51.7435C16.769 53.0365 17.785 54.0525 19.078 54.0525H32.9316V60.9793C32.9316 62.2723 33.9475 63.2882 35.2405 63.2882H37.5494C42.6291 63.2882 47.4317 61.3487 51.0336 57.7468L55.0973 53.683C57.7757 51.0047 61.47 49.4346 65.2566 49.4346C66.5497 49.4346 67.5656 48.4187 67.5656 47.1257V44.8167H76.8013C77.3555 44.8167 78.002 45.0938 78.3714 45.5556C78.5561 45.8327 78.9255 46.2944 78.8332 47.0333C77.8172 55.1608 74.123 62.8264 68.3044 68.6449C61.2853 75.5717 52.0495 79.4507 42.1673 79.4507C32.2851 79.4507 23.0493 75.5717 16.0302 68.6449C9.10336 61.6258 5.22435 52.39 5.22435 42.5078C5.22435 32.6255 9.10336 23.3898 16.0302 16.3706C23.0493 9.44384 32.2851 5.56483 42.1673 5.56483C49.9253 5.56483 57.2216 7.96612 63.4095 12.3069C63.1324 13.0458 62.9477 13.877 62.9477 14.7082C63.0401 18.5872 66.0879 21.635 69.9669 21.635ZM69.9669 12.3993C71.2599 12.3993 72.2758 13.4152 72.2758 14.7082C72.2758 16.0012 71.2599 17.0171 69.9669 17.0171C68.6739 17.0171 67.6579 16.0012 67.6579 14.7082C67.6579 13.4152 68.6739 12.3993 69.9669 12.3993ZM62.9477 44.9091C58.6993 45.3709 54.8203 47.3104 51.7725 50.3582L47.7087 54.4219C45.0304 57.1003 41.3361 58.6703 37.5494 58.6703V26.3452C41.4284 26.3452 45.0304 27.823 47.7087 30.5937L51.7725 34.6574C54.8203 37.7052 58.6993 39.5524 62.9477 40.1065V44.9091Z" fill="#E46948" />
</svg>
